<?xml version="1.0" encoding="UTF-8"?>
<svg id="Layer_1" xmlns="http://www.w3.org/2000/svg" version="1.1" viewBox="0 0 1920 1080">
  <!-- Generator: Adobe Illustrator 29.7.1, SVG Export Plug-In . SVG Version: 2.1.1 Build 8)  -->
  <defs>
    <style>
      .st0 {
        fill: #2eabff;
      }

      .st1 {
        fill: #020202;
      }
    </style>
  </defs>
  <g>
    <path class="st1" d="M559.9,565.9h-48.1l-8.5,27.1h-23l37.9-116.5h35.8l38.1,116.5h-23.8l-8.5-27.1ZM554.4,548.1l-18.3-58.9-18.5,58.9h36.8Z"/>
    <path class="st1" d="M625.2,470.6v122.5h-22.2v-122.5h22.2Z"/>
    <path class="st1" d="M684.6,503.9c27.3,0,44.8,17.3,44.8,45.6s-17.5,45.6-44.8,45.6-44.8-17.3-44.8-45.6,17.5-45.6,44.8-45.6ZM684.6,577.8c14.1,0,22.8-11.6,22.8-28.3s-8.7-28.3-22.8-28.3-22.6,11.6-22.6,28.3,8.7,28.3,22.6,28.3Z"/>
    <path class="st1" d="M777.3,503.9c6.1-.1,12.1,1.5,17.3,4.7,5.2,3.2,9.4,7.8,12.1,13.3v-16h20.6v120.5h-22.2v-47.2c-2.8,4.9-6.9,8.9-11.8,11.7-4.9,2.8-10.5,4.2-16.1,4.1-21.3,0-37.3-16.8-37.3-45.6s15.9-45.5,37.3-45.5ZM784.1,577.8c13.6,0,22-11.5,22-28.3s-8.3-28.3-22-28.3-22.2,11.5-22.2,28.3,8.4,28.3,22.2,28.3Z"/>
    <path class="st1" d="M878.9,541.6l22.8-2.3v-4.3c0-9-5.2-15.3-16.8-15.3s-16.8,4.2-17.5,13.1h-20.3c.7-21.6,18.1-29,37.8-29s39.1,11.6,39.1,35.8v53.4h-20.8v-15.8c-5.5,11.1-16.5,17.8-31.8,17.8s-29.1-11.1-29.1-25.8,14-25.5,36.6-27.6ZM878.6,579.6c3,.1,6.1-.4,8.9-1.5,2.8-1.1,5.4-2.8,7.6-4.9,2.2-2.1,3.9-4.7,5-7.5,1.1-2.8,1.7-5.9,1.6-8.9v-3.8l-20,2c-10.8,1-17.3,5.2-17.3,13.1s4.5,11.5,14.1,11.5Z"/>
  </g>
  <g>
    <path class="st0" d="M1032.9,476.6l-36.3,116.5h-34.9l-35.8-116.5h24.3l29.3,102.2,29.6-102.2h23.8Z"/>
    <path class="st0" d="M1076.5,503.9c27.5,0,42.6,15.1,42.6,49.6v2.5h-65c1.7,16,10.8,23.3,23.6,23.3s15.6-4.2,19-11.3l21.3,1.3c-4.5,16.1-18.6,25.8-40.3,25.8s-46.1-14.1-46.1-45.6,18.6-45.6,44.9-45.6ZM1097.1,541.8c-.8-13.9-8.3-22.2-20.6-22.2s-20.5,7-22.5,22.2h43.1Z"/>
    <path class="st0" d="M1133.4,505.9h20.8v15.3c5.5-11.3,16.3-17.3,30.5-17.3s30.1,11.8,30.1,33.6v55.5h-22.2v-48.6c0-14.1-4.5-22.2-16.6-22.2s-20.3,10-20.3,25v46h-22.2v-87.2Z"/>
    <path class="st0" d="M1264.2,522.5v41.4c0,9.2,2,12.1,10.5,12.1,3.4,0,6.8-.3,10.2-.8v18c-4.8.7-9.6,1.1-14.5,1.2-19.4,0-28.5-7-28.5-27.1v-44.8h-18.1v-16.3h13.1c4.5,0,6.2-1.7,6.2-5.5v-14.6h21.1v20h20.6v16.6h-20.6Z"/>
    <path class="st0" d="M1379.7,505.9v87.2h-20.8v-16.3c-5.5,11.6-16.1,18.3-30.5,18.3s-30.1-12.5-30.1-34.6v-54.6h22.2v47.9c0,14.3,4.7,23,16.6,23s20.1-11.6,20.1-26.6v-44.4h22.5Z"/>
    <path class="st0" d="M1454.7,505.4v19.4c-4.4-.7-8.7-1-13.1-1.2-14.1,0-20.8,8-20.8,27.7v41.7h-22.5l.2-87.2h20.6v16.8c5-12.1,13.9-18.6,25.6-18.6,3.4,0,6.7.5,10,1.3Z"/>
    <path class="st0" d="M1506.3,503.9c27.5,0,42.6,15.1,42.6,49.6v2.5h-65c1.7,16,10.8,23.3,23.6,23.3s15.6-4.2,19-11.3l21.3,1.3c-4.5,16.1-18.6,25.8-40.3,25.8s-46.1-14.1-46.1-45.6,18.5-45.6,44.8-45.6ZM1527,541.8c-.8-13.9-8.3-22.2-20.6-22.2s-20.5,7-22.5,22.2h43.1Z"/>
    <path class="st0" d="M1576.9,565.9c1.2,9,7.7,13.3,20.3,13.3s17.5-2.8,17.5-9.2-4.2-7.5-14.6-10.5l-19.1-5.2c-15-4-21.6-13.5-21.6-25.3,0-18.5,16.6-25.3,35.4-25.3s37.6,7.8,39.6,27.5l-20.3,1c-1.3-8.5-9-12.6-19.4-12.6-8.8-.2-13.5,3.2-13.5,8.8s3.8,7.7,12.1,10l19.4,5.2c14.6,3.8,23.8,11.8,23.8,25.3s-17,26.1-39.9,26.1-38.4-8-40.1-28.5l20.5-.7Z"/>
  </g>
  <g>
    <path class="st0" d="M352.3,489.7l-69.3,38.8v64.5h138.7v-64.5l-69.3-38.8Z"/>
    <path class="st0" d="M352.3,474.5l69.3,38.8v-58.9h-138.7v58.9l69.3-38.8Z"/>
  </g>
</svg>