<?xml version="1.0" encoding="UTF-8"?> <svg xmlns="http://www.w3.org/2000/svg" viewBox="0 0 96.8753890991211 28.73760986328125" fill="none"><path d="M42.58921745095793 6.623530147163154C42.58921745095793 6.223644520407608 42.41169579722218 5.874893119650772 42.05964863580527 5.57722600912507C41.70785115322624 5.282580012537769 41.20924251397123 5.132248384247612 40.57056404666311 5.132248384247612C40.027512574264684 5.132248384247612 39.600561761482474 5.231470754422847 39.2829702796936 5.426894380834913C38.965129119066845 5.622342975130769 38.811576633767984 5.886902671753008 38.811576633767984 6.223644520407608C38.811576633767984 6.395024074731413 38.84902845945063 6.5513729630145825 38.924181789653815 6.689670071318714C38.999335119857 6.8279671796228465 39.132663619287236 6.951258589770131 39.32391760910663 7.0624905120476C39.51517159892603 7.173747402208859 39.7643510791346 7.269948658445692 40.07195540740809 7.357136508634901C40.38280556057409 7.44432435882411 40.775550372566144 7.525519916904095 41.25368534711464 7.600673247107279C42.449147622904825 7.793100727464735 43.35772891396591 8.111790796140298 43.98966605265116 8.559789534956154C44.61810768760602 9.007763305888224 44.93220366566452 9.6722335971498 44.93220366566452 10.553150472973302V10.724530027297108C44.93220366566452 11.193551724262827 44.836576670754816 11.614485277052022 44.64881818466579 11.993322977773921C44.4575641948464 12.37216067849582 44.18441554620094 12.693846893225993 43.825627056161146 12.961452671670422C43.46708824495925 13.229033482231062 43.033146424716286 13.433470514690752 42.52430095310801 13.577809850871686C42.015455481499735 13.72212421916883 41.43819800831116 13.791260289379 40.799519541003036 13.791260289379C40.05148174270158 13.791260289379 39.392079931849054 13.698055179196778 38.821813466121235 13.511644958832338C38.25129732155554 13.325234738467895 37.77665785073742 13.066667333954879 37.39739569599112 12.738963859231692C37.018383220082704 12.411235416624717 36.73150223535361 12.023384309855196 36.533257238073446 11.578406684977736C36.33850774452367 11.13342906010028 36.23963492472147 10.649376697093922 36.23963492472147 10.123203514136481V9.69328152318345H38.38787164587827V10.036015663947273C38.38787164587827 10.6373421771079 38.586116643158434 11.118398394059643 38.982356958880864 11.47618816874789C39.3785972746033 11.83397794343614 39.99330657347453 12.01437090380757 40.830230038062815 12.01437090380757C41.482640841454575 12.01437090380757 41.96402164089557 11.891104461544076 42.27836729779194 11.641550463078685C42.59271295468832 11.391996464613296 42.74976094371756 11.097350468025994 42.74976094371756 10.754591359378383C42.74976094371756 10.592250178985989 42.715554942927405 10.43590129070282 42.65063844507748 10.288565808467276C42.585721947227555 10.141255294115517 42.46962128761134 10.005954331865999 42.30907779485172 9.888705149595516C42.1450387983617 9.768434853386633 41.92307431148253 9.663195223218386 41.6431843342142 9.566993966981553C41.3595491743776 9.47079271074472 41.001010363175695 9.389597152664734 40.567068542932724 9.323457228509175C39.99330657347453 9.236269378319967 39.463987437159744 9.125012488158706 38.989098287503744 8.986715379854575C38.51096331295524 8.848418271550443 38.09774483625667 8.665004197240613 37.742451849947265 8.436498124808871C37.39065436736824 8.208017020260918 37.1172560398849 7.919363315782841 36.91926072144262 7.5766291750190184C36.72451122789284 7.233870066371406 36.62538872925276 6.812936513582209 36.62538872925276 6.31684963058983V6.229661780400621C36.62538872925276 5.817766601542836 36.72101572416246 5.4389289008209385 36.90902388908936 5.090152532180314C37.10027787890877 4.741401131423478 37.36318969520097 4.437741728788553 37.70824584915711 4.179149356391749C38.04980649938288 3.9205819518787344 38.463024976081456 3.7191410654736545 38.94465545436034 3.577847811114911C39.4262859326392 3.433533442817766 39.96609158014513 3.3643724047238064 40.56382271804023 3.3643724047238064C41.2367071861385 3.3643724047238064 41.8344383240336 3.4485641088584034 42.353520627995124 3.613926403189197C42.876098435687034 3.7822848435746024 43.309790577092116 4.007794769951731 43.665083563401524 4.29340239260762C44.016881045980554 4.579034983147297 44.28328836600313 4.909759571808884 44.46105969857678 5.282580012537769C44.64207685604292 5.655400453266655 44.73071284349186 6.046272673974578 44.73071284349186 6.458167852832362V6.975302661858391H42.58247612233506V6.6325435532107795L42.58921745095793 6.623530147163154Z" fill="#383838"></path><path d="M45.243553176506275 3.55682485296505H53.44799978938545V5.363800538501543H50.42164259538945V13.589869338741499H48.27315619539477V5.363800538501543H45.24704868023666V3.55682485296505H45.243553176506275Z" fill="#383838"></path><path d="M59.27475482909212 11.437138398502782H55.40148701699247L54.847949033402905 13.586848224803097H52.60058981360602L55.31934267932853 3.55682485296505H59.35664948791818L62.07540235364068 13.586848224803097H59.828043133843806L59.27475482909212 11.437138398502782ZM55.85565282310407 9.63318382690469H58.8033611831665L57.48480724029935 4.503906620827901H57.191184926947365L55.85565282310407 9.63318382690469Z" fill="#383838"></path><path d="M70.1470198247654 13.586848224803097H67.9985334247707V10.57724448082914C67.9985334247707 10.348738408397399 67.9301214231904 10.162328188032955 67.79704260259804 10.018013819735813C67.66021859943743 9.873699451438668 67.43500828766577 9.804563381228496 67.12066263076939 9.804563381228496H64.64784342036296V13.586848224803097H62.49935702036827V3.55682485296505H66.86099663936969C67.44524512001902 3.55682485296505 67.96083192025017 3.628982037113622 68.4082563977389 3.7703002593561545C68.85243505033513 3.9146146276532985 69.22470619762066 4.113059368003767 69.52182401470301 4.365609512523768C69.81894183178538 4.618159657043772 70.04789732612531 4.9128056536310725 70.20494531515455 5.24655135623106C70.3619933041838 5.5802720909472585 70.44064213811737 5.938061865635508 70.44064213811737 6.319895712412018V6.66265482105963C70.44064213811737 7.074549999917413 70.3143046461479 7.456408814577712 70.06487548710145 7.817194735320573C69.81569600689288 8.174984510008821 69.42969252352371 8.448582580562473 68.91036054072428 8.641010060919928V8.899577465432944C69.28962269547058 8.938652203561842 69.59023601628333 9.067935905818349 69.81569600689288 9.287428572202465C70.03766049377205 9.506896270702795 70.15026564965788 9.783515455194845 70.15026564965788 10.117236189911045V13.583852078748485L70.1470198247654 13.586848224803097ZM64.64434791663258 7.997587695692003H66.69720732171757C67.21978512940947 7.997587695692003 67.61252994140153 7.889351919469145 67.885678590047 7.67587651307804C68.15558141379995 7.459404960632324 68.29215573812267 7.1587417040520105 68.29215573812267 6.764873337289476V6.59349378296567C68.29215573812267 6.259773048249471 68.15558141379995 5.9711443116551814 67.885678590047 5.727607573182804C67.61602544513191 5.484070834710426 67.21978512940947 5.360804392446931 66.69720732171757 5.360804392446931H64.64434791663258V7.997587695692003Z" fill="#383838"></path><path d="M70.94624178483313 3.55682485296505H79.15043871887443V5.363800538501543H76.12433120371632V13.589869338741499H73.97584480372163V5.363800538501543H70.94948760972564V3.55682485296505H70.94624178483313Z" fill="#383838"></path><path d="M87.93214280494217 3.55682485296505V10.120257303849446C87.93214280494217 11.265758844178977 87.58708665098602 12.164727499981515 86.89722402191161 12.814167125202454C86.20711171399932 13.463581782539602 85.18592526705241 13.788289111208178 83.82991949850259 13.788289111208178C82.47391372995278 13.788289111208178 81.44923177927548 13.463581782539602 80.76261497509357 12.814167125202454C80.07275234601914 12.164727499981515 79.72769619206301 11.265758844178977 79.72769619206301 10.120257303849446V3.55682485296505H81.87618259205769V10.120257303849446C81.87618259205769 10.712545443078659 82.03323058108694 11.175574847935154 82.34757623798332 11.509295582651355C82.6616722160418 11.843016317367553 83.15703503040432 12.011399725636746 83.82991949850259 12.011399725636746C84.50280396660088 12.011399725636746 84.994671277233 11.843016317367553 85.31226275902188 11.509295582651355C85.62660841591826 11.175574847935154 85.7836564049475 10.712545443078659 85.7836564049475 10.120257303849446V3.55682485296505H87.93214280494217Z" fill="#383838"></path><path d="M90.9962015034587 9.804563381228496V13.586848224803097H88.8479647823019V3.55682485296505H93.3087268999434C93.89272570175484 3.55682485296505 94.4050666770935 3.6410165570996473 94.83900849733647 3.806378851430441C95.27270063874157 3.9747622596996344 95.63473495367384 4.194229958199963 95.92161593840294 4.464831882699003C96.20849692313205 4.738429953252655 96.4272155851187 5.0481066158805925 96.5740267417947 5.396882984521217C96.72083789847068 5.745634385278053 96.79274540378137 6.1004280139116895 96.79274540378137 6.4642100807091625V6.806969189356773C96.79274540378137 7.17978963008566 96.72083789847068 7.543596664766921 96.5740267417947 7.904382585509782C96.4272155851187 8.262172360198031 96.21199242686242 8.583883542811993 95.92161593840294 8.863498873358658C95.63123944994346 9.143089236021533 95.27270063874157 9.371595308453275 94.83900849733647 9.54297486277708C94.4050666770935 9.714354417100887 93.89272570175484 9.801542267290095 93.3087268999434 9.801542267290095H90.9962015034587V9.804563381228496ZM90.9962015034587 7.997587695692003H93.09699924541749C93.57513421996597 7.997587695692003 93.9509008709819 7.883334659476132 94.22754502335773 7.654828587044391C94.50418917573357 7.42632251461265 94.6442590037867 7.128680371970737 94.6442590037867 6.7678944512278765V6.59651489690407C94.6442590037867 6.232707862222809 94.50418917573357 5.938061865635508 94.22754502335773 5.706559647149154C93.9509008709819 5.478053574717413 93.57513421996597 5.363800538501543 93.09699924541749 5.363800538501543H90.9962015034587V8.000583841746616V7.997587695692003Z" fill="#383838"></path><path d="M39.88744274621157 20.664394370775124H44.77166017290489V25.73664493027913H42.817923266459985V24.61808373655732H42.52430095310801C42.39446795740815 24.99085424151863 42.1450387983617 25.303701825387698 41.77626315480655 25.556127130488758C41.40723783241351 25.808802114427703 40.853949527661825 25.934889927559293 40.116148561713615 25.934889927559293C39.59357075402171 25.934889927559293 39.10869445085034 25.847752013137658 38.651033141008355 25.676472330349004C38.19661765605887 25.50494296872247 37.80037734033643 25.249521517566798 37.46231219384105 24.90973358709001C37.124247047345655 24.56997062449701 36.86108555221557 24.149062039591602 36.6630902337733 23.649954042660823C36.46834074022352 23.147849899675425 36.36921824158343 22.564575166493835 36.36921824158343 21.89411258312304V19.542936902533857C36.36921824158343 18.893522245196706 36.4750820688464 18.319260918062742 36.687059402210195 17.817156775077347C36.89878705673611 17.315052632091955 37.192409370088086 16.894119079302758 37.564680517373624 16.548363824600532C37.937201343497044 16.20260856989831 38.38787164587827 15.944041165385293 38.907203628677685 15.766644351068477C39.42978143636959 15.589247536751657 40.003543405827784 15.502059686562449 40.63198504078265 15.502059686562449C41.26042667573751 15.502059686562449 41.86514882109337 15.59526479674467 42.37399429270164 15.781675017109114C42.882839764309914 15.968085237473558 43.316781584552885 16.226652641986572 43.67532039575478 16.554381084593548C44.034108885794566 16.885105673255133 44.30376203070965 17.269960633970044 44.48827469190617 17.714938258847504C44.67278735310269 18.159915883724956 44.76491884428201 18.63495484068369 44.76491884428201 19.140055129723695V19.3114346840475H42.61643244428733V19.140055129723695C42.61643244428733 18.538728616563066 42.43891079055157 18.081741439583375 42.087113307972544 17.772064776955435C41.73531582539352 17.46236314644371 41.23645750730062 17.30603922604433 40.597779039992496 17.30603922604433C39.95910057268438 17.30603922604433 39.49120243048914 17.48643218641576 39.101703443389574 17.844221961104008C38.712454135127906 18.20198676790847 38.51420913784774 18.81534780105512 38.51420913784774 19.68425512477639V21.803903618995427C38.51420913784774 23.352311900018908 39.231536439089425 24.12499299961955 40.662695537842424 24.12499299961955C41.30486950888093 24.12499299961955 41.789995490890185 23.974661371329397 42.12131930876269 23.674023082632868C42.4526431266352 23.373359826052557 42.61643244428733 22.9704780532424 42.61643244428733 22.46235665026399H39.880451738750814V20.6553809647275L39.88744274621157 20.664394370775124Z" fill="#383838"></path><path d="M51.70998539887261 23.586785296676087H47.836467907935074L47.28317960318339 25.736395251441248H45.035820383386515L47.754573249109015 15.706471751138352H51.79188005769867L54.51063292342117 25.736395251441248H52.26327370362429L51.70998539887261 23.586785296676087ZM48.29088339288456 21.779809611139594H51.23859175294699L49.92003781007983 16.65055737294659H49.62641549672785L48.29088339288456 21.779809611139594Z" fill="#383838"></path><path d="M62.58100200035645 25.736395251441248H60.43276527919966V22.726891379002442C60.43276527919966 22.498385306570704 60.36435327761935 22.312000054090046 60.231274457027006 22.167660717909115C60.094450453866386 22.02334634961197 59.86899046325683 21.9542102794018 59.554894485198346 21.9542102794018H57.08182559595403V25.736395251441248H54.93358887479723V15.706471751138352H59.29522849379863C59.879227295610086 15.706471751138352 60.39506377467912 15.778653903170712 60.84248825216785 15.919947157529457C61.28666690476407 16.0642615258266 61.65893805204961 16.26270626617707 61.95605586913197 16.51525641069707C62.253173686214325 16.767806555217074 62.48212918055426 17.062452551804373 62.639177169583505 17.396198254404364C62.79622515861275 17.729918989120563 62.87487399254632 18.08770876380881 62.87487399254632 18.46954261058532V18.812301719232934C62.87487399254632 19.224196898090714 62.74853650057685 19.60605571275101 62.4991073415304 19.966841633493875C62.24967818248394 20.32463140818212 61.86392437795265 20.598229478735778 61.344592395153235 20.79065695909323V21.049224363606246C61.72385454989954 21.088299101735142 62.02446787071228 21.21758280399165 62.24992786132183 21.437075470375767C62.471892348201 21.656543168876098 62.58449750408683 21.93316235336815 62.58449750408683 22.26688308808435V25.733399105386635L62.58100200035645 25.736395251441248ZM57.078579771061534 20.147234593865306H59.131439176146515C59.654016983838424 20.147234593865306 60.04676179583048 20.038998817642447 60.31991044447594 19.825523411251343C60.5898132682289 19.609051858805625 60.72638759255163 19.30838860222531 60.72638759255163 18.914520235462778V18.74314068113897C60.72638759255163 18.409419946422773 60.5898132682289 18.120791209828486 60.31991044447594 17.877254471356107C60.050257299560855 17.633717732883728 59.654016983838424 17.51045129062023 59.131439176146515 17.51045129062023H57.078579771061534V20.147234593865306Z" fill="#383838"></path><path d="M69.6623932004319 23.586785296676087H65.78887570949436L65.23558740474269 25.736395251441248H62.9882281849458L65.7069810506683 15.706471751138352H69.74428785925797L72.46304072498046 25.736395251441248H70.21568150518358L69.6623932004319 23.586785296676087ZM66.24329119444386 21.779809611139594H69.19099955450628L67.87244561163912 16.65055737294659H67.57882329828715L66.24329119444386 21.779809611139594Z" fill="#383838"></path><path d="M75.78926220327554 20.664394370775124H80.67372930880674V25.73664493027913H78.71999240236184V24.61808373655732H78.42612041017198C78.29628741447213 24.99085424151863 78.04710793426355 25.303701825387698 77.67808261187052 25.556127130488758C77.30930696831535 25.808802114427703 76.75601866356367 25.934889927559293 76.01821769761547 25.934889927559293C75.49563988992357 25.934889927559293 75.0105139079143 25.847752013137658 74.55285259807233 25.676472330349004C74.09868679196073 25.50494296872247 73.7024464762383 25.249521517566798 73.36413165090502 24.90973358709001C73.02606650440963 24.56997062449701 72.76315468811744 24.149062039591602 72.56490969083727 23.649954042660823C72.37016019728749 23.147849899675425 72.2712873774853 22.564575166493835 72.2712873774853 21.89411258312304V19.542936902533857C72.2712873774853 18.893522245196706 72.37715120474824 18.319260918062742 72.58887885927416 17.817156775077347C72.80060651380008 17.315052632091955 73.09447850598994 16.894119079302758 73.46674965327547 16.548363824600532C73.83902080056102 16.20260856989831 74.28994078178012 15.944041165385293 74.80902308574164 15.766644351068477C75.33160089343356 15.589247536751657 75.90536286289175 15.502059686562449 76.53405417668449 15.502059686562449C77.16249581163937 15.502059686562449 77.76696827815735 15.59526479674467 78.2758137497656 15.781675017109114C78.78490890021176 15.968085237473558 79.21860104161685 16.226652641986572 79.57738953165664 16.554381084593548C79.93592834285853 16.885105673255133 80.2058311666115 17.269960633970044 80.39009414897014 17.714938258847504C80.57460681016667 18.159915883724956 80.66673830134597 18.63495484068369 80.66673830134597 19.140055129723695V19.3114346840475H78.51850158018918V19.140055129723695C78.51850158018918 18.538728616563066 78.34073024761554 18.081741439583375 77.98893276503652 17.772064776955435C77.63713528245748 17.46236314644371 77.13852664320248 17.30603922604433 76.49984817589434 17.30603922604433C75.86116970858622 17.30603922604433 75.3930218875531 17.48643218641576 75.00377257929144 17.844221961104008C74.61427359219188 18.20198676790847 74.4162782737496 18.81534780105512 74.4162782737496 19.68425512477639V21.803903618995427C74.4162782737496 23.352311900018908 75.13360557499128 24.12499299961955 76.56476467374428 24.12499299961955C77.20693864478278 24.12499299961955 77.69181494795414 23.974661371329397 78.02313876582667 23.674023082632868C78.35446258369917 23.373359826052557 78.51850158018918 22.9704780532424 78.51850158018918 22.46235665026399H75.78252087465266V20.6553809647275L75.78926220327554 20.664394370775124Z" fill="#383838"></path><path d="M81.64023609025699 15.706471751138352H88.836978913435V17.513447436674845H83.78872249025167V19.807496599156096H88.63873391615485V21.6144473168088H83.78872249025167V23.93556166531671H89.03172840698477V25.742637222388353H81.64023609025699V15.712489011131364V15.706471751138352Z" fill="#383838"></path><path d="M29.866332908885994 20.054029483683085V28.71306635669826H0V19.828544525189745L4.624776146247706 20.83574895721514V24.63910669470718H25.238036291024116V23.23803389591925L13.703523145746447 20.730534294930685L11.001748441000084 20.13822118781768L1.7556367228907162 18.129804615876107L0 17.7479707690996V13.556761924838035L2.865713829701217 14.179136364032312L11.001748441000084 15.950033457494518L14.519848106209272 16.713701151047538L29.866332908885994 20.054029483683085Z" fill="#5458FF"></path><path d="M29.866332908885994 6.596489929020281V0H0V11.443130690612007L29.866332908885994 17.943394395511664V12.011374757752959V8.677063685110426L25.470487289094432 7.720943543316163L21.73027332970334 6.906166591648219L21.706354097034023 6.903145477709819V7.720943543316163V10.682459143113597L24.927286009393278 11.382983058565669L25.238036291024116 11.449147950605019V12.738963859231692L4.624776146247706 8.25613013232123V4.07093854805268H25.238036291024116V5.589260529111095L29.866332908885994 6.596489929020281Z" fill="#5458FF"></path></svg> 