<svg width="213" height="38" viewBox="0 0 213 38" fill="none" xmlns="http://www.w3.org/2000/svg">
<g id="tnf-logotype" clip-path="url(#clip0_5705_143323)">
<path id="Vector" d="M2.02586 1.10693C2.02586 1.10693 1.85617 1.06471 1.78192 1.10693C1.70768 1.1386 1.70768 1.20193 1.70768 1.20193C1.70768 1.20193 1.67586 1.2336 1.62283 1.24415C1.5698 1.24415 1.53799 1.33915 1.52738 1.37082C1.50617 1.39193 1.47435 1.46582 1.47435 1.46582L1.36829 1.59249C1.36829 1.59249 1.33647 1.62415 1.34708 1.64526C1.34708 1.67693 1.33647 1.74026 1.31526 1.77193C1.30465 1.79304 1.15617 2.01471 1.12435 2.05693C1.10314 2.10971 0.975869 2.42638 0.965263 2.45804C0.944051 2.50026 0.912233 2.6586 0.891021 2.73249C0.869809 2.81693 0.562236 4.00971 0.562236 4.09415C0.562236 4.1786 0.530418 4.24193 0.519812 4.54804C0.4986 4.85415 0.477388 4.98082 0.466782 5.07582C0.466782 5.16026 0.33951 7.27138 0.360722 7.4086C0.371328 7.54582 0.360722 7.60915 0.360722 7.6936C0.360722 7.77804 0.360722 7.89415 0.360722 8.03138C0.360722 8.1686 0.39254 10.3325 0.381934 10.4064C0.381934 10.4803 0.244056 10.5858 0.413752 10.6808C0.413752 10.6808 0.44557 10.6808 0.44557 10.7547C0.44557 10.8286 0.39254 10.8708 0.424358 10.8919C0.44557 10.9236 0.44557 10.9447 0.424358 10.9764C0.403146 11.008 0.39254 11.0503 0.434964 11.0714C0.477388 11.103 0.44557 11.1558 0.434964 11.198C0.424358 11.2403 0.413752 11.2825 0.434964 11.3036C0.466782 11.3247 0.477388 11.5147 0.434964 11.5992C0.39254 11.6836 0.360722 11.8525 0.413752 11.8947C0.456176 11.9475 0.413752 11.9686 0.39254 11.9897C0.371328 12.0108 0.275874 12.053 0.371328 12.2114C0.434964 12.3275 0.371328 12.528 0.371328 12.528C0.371328 12.528 0.318298 12.5597 0.371328 12.5914C0.413752 12.6336 0.350116 12.7075 0.350116 12.7497C0.350116 12.7919 0.371328 12.7919 0.350116 12.813C0.350116 12.8447 0.222844 12.8975 0.350116 13.0242C0.350116 13.0242 0.33951 13.1508 0.33951 13.1825C0.33951 13.2142 0.18042 13.3197 0.328904 13.3197C0.328904 13.3197 0.33951 13.4147 0.307692 13.4675C0.275874 13.5203 0.23345 13.5519 0.275874 13.573C0.275874 13.573 0.328904 13.6047 0.297086 13.6786C0.244056 13.7419 0.23345 13.8053 0.275874 13.8264C0.307692 13.8475 0.275874 13.9003 0.275874 13.9003C0.275874 13.9003 0.212238 13.9742 0.307692 14.0164C0.307692 14.0164 0.318298 14.0903 0.307692 14.1853C0.28648 14.2803 0.212238 15.6419 0.212238 15.7369C0.212238 15.8319 0.106178 17.1514 0.106178 17.2886C0.106178 17.4258 0.106178 17.4364 0.106178 17.4364C0.106178 17.4364 0.148602 17.4997 0.106178 17.5419L0.0849663 17.6686L0.0319364 18.6397C0.0319364 18.6397 0.0849663 18.7347 0.0637544 18.7769C0.0319364 18.8297 -0.0210935 18.893 0.0531484 18.9036V19.2308V19.2836C0.0531484 19.2836 -0.0529115 19.3575 0.0743603 19.3892V19.4419C0.0743603 19.4419 -0.0635175 19.5264 0.0743603 19.5686C0.0743603 19.5686 0.0743603 19.6742 0.0319364 19.6953C-0.0104875 19.7058 0.0637544 21.7853 0.0637544 21.7853C0.0637544 21.7853 0.23345 24.2447 0.44557 24.6986C0.44557 24.6986 0.44557 24.783 0.4986 24.7936C0.4986 24.7936 0.519812 24.9097 0.530418 24.973C0.530418 25.0364 0.742537 25.9125 0.848597 26.2186V26.3347C0.848597 26.3347 0.827385 26.4086 0.922839 26.5247C0.922839 26.5247 0.975869 26.6725 0.975869 26.7886C0.975869 26.9047 0.997081 27.0842 1.06072 27.1475C1.11375 27.2108 1.14556 27.2636 1.16678 27.3692C1.17738 27.4642 1.12435 27.4853 1.21981 27.5064C1.21981 27.5064 1.25162 27.728 1.25162 27.8547C1.25162 27.9708 1.26223 28.1186 1.35768 28.2242C1.44253 28.3192 1.3895 28.4775 1.49556 28.6253C1.61223 28.773 1.62283 28.8575 1.67586 28.9842C1.7395 29.1003 1.94101 29.5753 2.00465 29.6597C2.06829 29.7442 2.06829 29.7864 2.06829 29.7864C2.06829 29.7864 2.06829 29.8497 2.11071 29.8919C2.14253 29.9236 2.29101 30.1347 2.33344 30.1664C2.37586 30.2086 2.34404 30.2719 2.41828 30.3142C2.48192 30.3669 2.40768 30.4408 2.50313 30.4619C2.50313 30.4619 2.50313 30.5253 2.54555 30.5253C2.58798 30.5253 2.60919 30.5569 2.60919 30.5569C2.60919 30.5569 2.67283 30.6625 2.69404 30.6836C2.70464 30.7047 2.66222 30.8208 2.77889 30.8208C2.77889 30.8208 2.86373 31.0214 2.88495 31.0425C2.90616 31.0742 2.95919 31.1375 2.9804 31.1586C3.00161 31.1797 2.99101 31.2747 3.03343 31.2747C3.07585 31.2747 3.07585 31.338 3.07585 31.338C3.07585 31.338 3.39403 31.908 3.53191 32.0136C3.66979 32.1297 3.58494 32.0769 3.58494 32.0769C3.58494 32.0769 3.59555 32.193 3.691 32.2142C3.691 32.2142 3.70161 32.2564 3.70161 32.2775C3.70161 32.2986 3.85009 32.4569 3.85009 32.4569C3.85009 32.4569 3.91373 32.4569 3.91373 32.5519C3.91373 32.5519 4.2213 32.9425 4.31675 33.0692C4.41221 33.1958 5.39856 34.3569 5.68493 34.5258C5.68493 34.5258 5.74856 34.5786 5.74856 34.6208C5.74856 34.663 5.86523 34.7158 5.86523 34.7158C5.86523 34.7158 5.92886 34.6419 5.95008 34.7475C5.96068 34.853 6.02432 34.8847 6.02432 34.8847L6.08795 34.9164C6.08795 34.9164 6.32129 35.1064 6.37432 35.1275C6.41674 35.138 6.48037 35.1697 6.49098 35.2119C6.49098 35.2647 6.5334 35.2647 6.58643 35.2753C6.63946 35.2964 6.68189 35.3808 6.68189 35.3808C6.68189 35.3808 6.76674 35.4547 6.81977 35.4653C6.8728 35.4653 7.0637 35.613 7.10613 35.6447C7.13795 35.6658 7.16976 35.6658 7.16976 35.6975C7.16976 35.7292 7.16976 35.7714 7.20158 35.7714C7.2334 35.7714 7.39249 35.8347 7.42431 35.8558C7.45613 35.8664 7.67885 36.0036 7.71067 36.0458C7.74249 36.0986 7.83794 36.088 7.86976 36.1197C7.91218 36.1408 7.92279 36.1514 7.96521 36.1936C7.99703 36.2253 8.19854 36.3414 8.27279 36.3836C8.34703 36.4258 8.44248 36.4469 8.59097 36.4997C8.73945 36.5525 8.84551 36.6264 8.86672 36.6369C8.88793 36.6475 8.93036 36.7003 9.01521 36.7108C9.01521 36.7108 9.05763 36.7425 9.08945 36.7742C9.13187 36.7953 9.23793 36.8269 9.23793 36.8269C9.23793 36.8269 9.46066 36.8797 9.52429 36.9325C9.58793 36.9958 9.63035 37.0486 9.70459 37.038C9.77884 37.0275 9.84247 37.0169 9.87429 37.0486C9.90611 37.0908 10.044 37.0908 10.0652 37.0908C10.0864 37.0908 10.097 37.1436 10.1394 37.1542C10.1925 37.1753 10.2243 37.1542 10.2243 37.1542C10.2243 37.1542 10.3303 37.2069 10.447 37.228C10.5743 37.2492 10.6273 37.2492 10.6379 37.2914C10.6485 37.323 10.7228 37.3125 10.7652 37.323C10.8076 37.323 11.2319 37.4708 11.3909 37.5025C11.5394 37.5342 11.9955 37.6397 12.0909 37.6714C12.197 37.703 12.3773 37.703 12.4197 37.703C12.4622 37.703 12.5576 37.7769 12.6212 37.798C12.7061 37.8192 12.7061 37.7453 12.7379 37.7558C12.7803 37.7558 12.7909 37.7769 12.844 37.798C12.897 37.8192 13.7243 37.8614 14 37.8825C14.2758 37.8825 14.4243 37.9142 14.4773 37.9353C14.5303 37.9564 14.5091 37.9564 14.594 37.9564C14.6788 37.9564 14.9652 37.9775 14.9652 37.9775C14.9652 37.9775 14.9864 38.083 15.1349 37.988H15.1879C15.1879 37.988 15.4742 37.988 15.5061 37.9986C15.5273 37.9986 15.5697 38.0408 15.6652 37.9986H15.7818C15.7818 37.9986 16.503 37.9669 16.6197 37.9564C16.747 37.9458 17.8712 37.8508 18.0515 37.8403C18.0515 37.8403 18.656 37.7875 18.8363 37.7242C19.0273 37.6714 20.8833 37.1964 21.6788 36.7953C21.6788 36.7953 21.753 36.7425 21.7954 36.7636C21.8378 36.7953 21.9863 36.6686 22.2515 36.563C22.2515 36.563 22.3045 36.5314 22.3894 36.5525C22.4636 36.563 22.5484 36.4364 22.559 36.3519C22.5697 36.2569 22.6757 36.3519 22.7287 36.3308C22.7712 36.3203 22.9833 36.1092 22.9833 36.1092C22.9833 36.1092 23.1106 36.0564 23.1954 36.0036C23.2697 35.9614 23.6727 35.6342 23.7363 35.5497C23.7363 35.5497 23.9272 35.4758 23.9272 35.3914L25.6454 33.9347C25.6454 33.9347 25.656 33.8186 25.7515 33.8292C25.8363 33.8503 26.059 33.5336 26.1014 33.5336C26.1439 33.5336 26.5151 33.2908 26.5469 33.1008C26.5469 33.1008 26.8014 32.7947 26.8757 32.7314C26.9499 32.668 28.6257 30.6308 29.0499 29.8708C29.0499 29.8708 29.209 29.6492 29.2408 29.533C29.2726 29.4275 29.6332 29.0264 29.6438 28.9842C29.6545 28.9419 29.6863 28.868 29.7287 28.8364C29.7711 28.8153 30.4923 27.1264 30.6302 26.7675C30.7681 26.4192 31.3514 24.7725 31.4044 24.498C31.4469 24.213 31.4787 24.2869 31.4893 24.2764C31.5105 24.2658 31.7969 23.4847 31.8499 23.3369C31.8923 23.1997 32.1999 21.7325 32.1999 21.7325C32.1999 21.7325 32.2317 21.7008 32.2741 21.6269C32.3166 21.553 32.2741 21.3525 32.2953 21.2892C32.3272 21.2258 32.3696 21.1097 32.3696 21.1097C32.3696 21.1097 32.3484 20.983 32.3696 20.9197C32.3802 20.8564 32.6559 19.3469 32.6772 19.273C32.709 19.1992 32.7408 18.9775 32.762 18.8403C32.7938 18.7136 33.059 16.5603 33.0908 16.4758C33.1226 16.4019 33.1332 16.3703 33.1544 16.2858C33.1756 16.2014 33.2605 14.3858 33.3029 14.0797C33.3453 13.7842 33.4726 12.8658 33.4938 12.7075C33.5256 12.5703 33.5362 12.5914 33.5681 12.5069C33.5681 12.4858 33.5681 12.4647 33.5681 12.433C33.5681 12.4119 33.5999 12.4119 33.5999 12.3908C33.5999 12.3803 33.5681 12.338 33.5787 12.3275C33.5787 12.2219 33.5999 12.1164 33.6211 12.0742C33.6423 12.0003 33.7271 11.768 33.7271 11.768C33.7271 11.768 33.7378 11.6097 33.759 11.5042C33.7802 11.4092 33.9181 10.7864 33.9711 10.6069C34.0135 10.438 34.0453 10.248 34.0771 10.1847C34.0771 10.1847 34.1196 10.1425 34.1408 10.0792C34.162 10.0158 34.0984 9.98415 34.1196 9.93138C34.1514 9.88915 34.1514 9.85749 34.1832 9.80471C34.215 9.74138 34.1832 9.73082 34.2044 9.65693C34.2999 9.29804 34.3211 9.29804 34.3211 9.23471C34.3211 9.16082 34.3211 8.99193 34.3529 8.88638C34.3847 8.78082 34.4271 8.59082 34.5014 8.53804C34.5756 8.47471 34.5226 8.43249 34.5438 8.34804C34.5756 8.2636 34.5862 7.89415 34.6181 7.84138C34.6499 7.77804 34.7241 7.66193 34.7241 7.54582C34.7241 7.42971 34.7029 7.06027 34.7347 6.97582C34.7665 6.89138 34.8408 6.8386 34.8408 6.79638C34.8408 6.75415 34.809 6.62749 34.8408 6.53249C34.8726 6.42693 34.9468 5.85693 34.9787 5.48749C35.0105 5.11804 35.0211 4.61138 34.9893 4.35804C34.9574 4.11526 34.9256 3.94638 34.9256 3.94638C34.9256 3.94638 34.8938 3.88304 34.8832 3.83027C34.8514 3.71415 34.8302 3.55582 34.809 3.5136C34.809 3.47138 34.6393 2.9436 34.5756 2.85915C34.5226 2.77471 34.3423 2.41582 34.3105 2.34193C34.2787 2.26804 34.1302 2.15193 34.1196 2.10971C34.1196 2.10971 34.1196 2.03582 34.0771 2.00415C34.0771 2.00415 34.0347 1.98304 34.0029 1.96193C33.9817 1.94082 33.865 1.85638 33.8014 1.8036C33.7484 1.76138 33.6741 1.76138 33.5893 1.74026C33.5893 1.74026 33.3665 1.66638 33.2075 1.96193C33.2075 1.96193 33.1544 2.13082 33.2499 2.71138C33.3559 3.28138 33.3347 3.28138 33.3347 3.30249C33.3347 3.30249 33.3347 3.31656 33.3347 3.34471C33.3347 3.34471 33.2605 3.42915 33.3559 3.5136C33.3559 3.5136 33.3984 3.54526 33.3453 3.59804C33.2923 3.65082 33.3029 3.67193 33.3135 3.71415C33.3135 3.74582 33.3135 3.78804 33.2181 3.83027C33.1332 3.87249 33.1332 3.86193 33.0378 3.81971C32.9423 3.77749 32.815 3.59804 32.7302 3.49249C32.6559 3.38693 32.6984 3.35526 32.6878 3.27082C32.6666 3.18638 32.6029 3.11249 32.5711 3.08082C32.5287 3.04915 32.5075 3.02804 32.4863 2.97526C32.465 2.91193 32.2317 2.45804 32.1681 2.34193C32.1044 2.23638 32.0726 2.17304 32.0726 2.12026C32.062 2.07804 32.0302 2.06749 32.0196 2.04638C32.009 2.02526 31.712 1.58193 31.6696 1.53971C31.6272 1.49749 31.5317 1.37082 31.5105 1.29693C31.4787 1.22304 31.4363 1.19138 31.415 1.17026C31.3938 1.1386 30.9166 0.684709 30.8741 0.642487C30.8317 0.61082 30.8317 0.600265 30.8211 0.589709C30.7999 0.589709 30.5241 0.378598 30.4711 0.357487C30.4287 0.336376 30.2696 0.304709 30.1848 0.304709C30.0999 0.304709 29.9302 0.315265 29.8242 0.441931C29.8242 0.441931 29.7711 0.505265 29.7923 0.716376C29.7923 0.716376 29.7711 0.769154 29.7923 0.821931C29.8135 0.874709 29.8666 1.05415 29.8984 1.08582C29.9302 1.12804 29.9832 1.21249 30.0045 1.26526C30.0151 1.30749 30.0469 1.44471 30.0575 1.52915C30.0575 1.60304 30.0787 1.60304 30.0893 1.6136C30.0999 1.6136 30.1848 1.7086 30.2484 1.82471C30.312 1.95138 30.3863 2.23638 30.4181 2.31026C30.4499 2.39471 30.5666 2.58471 30.609 2.66915C30.6408 2.7536 30.7575 3.05971 30.7681 3.15471C30.7681 3.24971 30.8105 3.5136 30.8105 3.57693C30.7999 3.64026 30.8105 3.72471 30.662 3.75638C30.5135 3.78804 30.4393 3.73526 30.4075 3.7036C30.3757 3.68249 29.9938 3.34471 29.962 3.28138C29.9196 3.21804 29.5378 2.85915 29.4954 2.81693C29.4529 2.77471 29.262 2.54249 29.1878 2.4686C29.1135 2.40526 28.7954 2.09915 28.7317 2.02526C28.6681 1.96193 28.456 1.71915 28.4348 1.67693C28.4136 1.64526 28.4348 1.64526 28.2969 1.56082C28.1484 1.46582 28.212 1.44471 28.159 1.39193C28.106 1.33915 27.9363 1.14915 27.809 1.07526C27.6711 1.00138 27.5226 0.874709 27.4908 0.864154C27.459 0.843042 27.459 0.790265 27.4378 0.779709C27.4166 0.769154 27.3742 0.769154 27.3636 0.748042C27.3423 0.726931 27.3211 0.695265 27.2999 0.674154C27.2787 0.653042 27.2257 0.631931 27.2045 0.621376C27.1833 0.621376 27.1196 0.621376 27.0984 0.61082C27.0666 0.589709 26.9499 0.494709 26.9393 0.473598C26.9181 0.463042 26.8757 0.441931 26.8545 0.431376C26.8227 0.42082 26.7484 0.346931 26.6742 0.336376C26.5999 0.32582 26.4833 0.294154 26.3348 0.357487C26.1863 0.42082 26.1757 0.441931 26.1757 0.441931C26.1757 0.441931 26.1227 0.463042 26.1014 0.463042C26.0908 0.463042 26.1014 0.536931 26.0802 0.558042C26.059 0.589709 26.006 0.621376 26.0484 0.663598C26.0908 0.716376 26.0484 0.748043 26.0166 0.758598C25.9954 0.769154 25.9318 0.843042 25.9424 0.89582C25.9424 0.938043 26.0166 1.01193 26.0696 1.07526C26.1121 1.14915 26.0696 1.1386 26.1014 1.19138C26.1439 1.2336 26.4727 1.7086 26.5045 1.76138C26.5363 1.81415 26.6636 2.00415 26.7378 2.0886C26.812 2.17304 26.9499 2.34193 26.9711 2.35249C26.9924 2.3736 27.003 2.41582 27.0348 2.44749C27.056 2.47915 27.109 2.47915 27.1302 2.52138C27.1514 2.5636 27.1514 2.61638 27.1727 2.64804C27.1939 2.67971 27.2151 2.66915 27.2575 2.67971C27.2999 2.69026 27.353 2.73249 27.3848 2.78526C27.4272 2.82749 27.6393 3.11249 27.6817 3.18638C27.7348 3.27082 27.7984 3.39749 27.8196 3.42915C27.8514 3.47138 27.9257 3.45026 27.9257 3.54526C27.9257 3.54526 27.9787 3.62971 28.0105 3.65082C28.0423 3.67193 28.0742 3.74582 28.0954 3.76693C28.1166 3.78804 28.2333 3.95693 28.2863 4.00971C28.3287 4.06249 28.3605 4.10471 28.3711 4.1786C28.3923 4.25249 28.456 4.40026 28.4772 4.45304C28.4984 4.50582 28.509 4.71693 28.4984 4.78026C28.4984 4.85415 28.4029 4.92804 28.3393 4.9386C28.2651 4.9386 28.1484 4.86471 28.1166 4.86471C28.1166 4.86471 28.0423 4.88582 28.0211 4.86471C27.9893 4.85415 27.9893 4.76971 27.9575 4.75915C27.9363 4.72749 27.8514 4.73804 27.809 4.72749C27.7666 4.71693 27.6923 4.62193 27.6711 4.60082C27.6499 4.56915 27.4272 4.41082 27.406 4.37915C27.3848 4.34749 27.3742 4.31582 27.3424 4.28415C27.2999 4.25249 27.2999 4.19971 27.2787 4.1786C27.2469 4.15749 27.1939 4.15749 27.162 4.12582C27.1408 4.10471 27.109 4.06249 27.0878 4.02026C27.0666 3.97804 26.9287 3.84082 26.8969 3.81971C26.8757 3.7986 26.7484 3.67193 26.7272 3.65082C26.706 3.61915 26.4302 3.39749 26.3984 3.36582C26.3666 3.33415 26.3878 3.3236 26.356 3.29193C26.3348 3.27082 26.303 3.27082 26.2711 3.26026C26.2499 3.26026 26.1651 3.16526 26.1439 3.14415C26.1227 3.12304 26.1227 3.08082 26.0802 3.05971C26.059 3.0386 26.0378 3.0386 25.9954 3.0386C25.953 3.0386 25.8999 2.98582 25.8787 2.96471C25.8575 2.9436 25.7515 2.8486 25.7302 2.83804C25.709 2.81693 25.709 2.78526 25.6878 2.7536C25.6666 2.72193 25.5818 2.71138 25.5818 2.71138C25.5818 2.71138 25.2848 2.55304 25.253 2.53193C25.253 2.53193 25.1893 2.47915 25.1681 2.45804C25.1469 2.44749 25.1151 2.44749 25.0833 2.43693C25.0621 2.43693 24.903 2.32082 24.8712 2.28915C24.8287 2.25749 24.7545 2.25749 24.7227 2.24693C24.6909 2.23638 24.5636 2.23638 24.5318 2.20471C24.4999 2.1836 24.3833 2.1836 24.2984 2.24693C24.203 2.31026 24.1606 2.3736 24.1393 2.40526C24.1181 2.43693 24.0863 2.52138 24.0863 2.53193C24.0757 2.54249 24.0227 2.62693 24.0545 2.6586C24.0863 2.70082 24.0863 2.74304 24.0863 2.78526C24.0863 2.82749 24.1181 3.02804 24.1287 3.08082C24.1287 3.1336 24.1606 3.15471 24.1606 3.17582C24.1606 3.18638 24.1712 3.26026 24.203 3.29193C24.2348 3.3236 24.4363 3.6086 24.4893 3.67193C24.5424 3.73526 24.6696 3.92526 24.7333 3.9886C24.7969 4.06249 24.8393 4.09415 24.8393 4.10471C24.8393 4.12582 24.8712 4.18915 24.8924 4.19971C24.9136 4.21026 24.9454 4.24193 24.956 4.2736C24.9666 4.29471 24.9984 4.28415 25.0196 4.31582C25.0515 4.34749 25.0833 4.44249 25.1151 4.47415C25.1469 4.50582 25.1787 4.5586 25.1893 4.57971C25.1999 4.61138 25.3378 4.71693 25.3696 4.75915C25.4015 4.79082 25.4015 4.87526 25.4227 4.89638C25.4333 4.92804 25.4651 4.95971 25.5181 4.98082C25.5711 5.00193 25.5924 5.02304 25.6136 5.04415C25.6454 5.07582 25.6454 5.13915 25.6666 5.16026C25.6878 5.19193 25.7833 5.33971 25.8681 5.40304C25.9424 5.46638 26.1121 5.70915 26.1651 5.77249C26.2181 5.83582 26.1863 5.86749 26.2181 5.87804C26.2181 5.87804 26.2429 5.89564 26.2924 5.93082C26.2924 5.93082 26.4196 6.12082 26.4621 6.23693C26.5045 6.35304 26.4939 6.52193 26.4833 6.5536C26.4727 6.59582 26.356 6.70138 26.3348 6.72249C26.3136 6.7436 26.2605 6.76471 26.2181 6.76471C26.1651 6.76471 26.059 6.77526 26.0378 6.76471C26.006 6.75415 25.9848 6.7436 25.9636 6.72249C25.9318 6.71193 25.7621 6.70138 25.7196 6.68026C25.6772 6.66971 25.2848 6.50082 25.253 6.47971C25.2105 6.4586 25.1151 6.4586 25.0515 6.43749C24.9878 6.41638 24.6909 6.24749 24.6378 6.23693C24.5848 6.21582 24.3302 6.12082 24.2136 6.09971C24.0863 6.0786 23.9484 6.08915 23.8954 6.09971C23.8318 6.11027 23.7363 6.1736 23.7151 6.19471C23.6939 6.21582 23.6303 6.30026 23.6196 6.32138C23.609 6.33193 23.5772 6.34249 23.556 6.35304C23.5348 6.35304 23.503 6.42693 23.503 6.46915C23.503 6.52193 23.4712 6.59582 23.4712 6.62749C23.4712 6.66971 23.4818 6.81749 23.5136 6.84915C23.5454 6.88082 23.5666 6.99693 23.5666 7.0286C23.5666 7.06026 23.5772 7.15527 23.5984 7.17638C23.6196 7.19749 23.6515 7.25026 23.6833 7.27138C23.7151 7.30304 23.8742 7.55638 23.9166 7.60915C23.959 7.66193 23.959 7.6936 23.9696 7.71471C23.9803 7.73582 24.1181 7.8836 24.1924 7.94693C24.2666 7.99971 24.553 8.28471 24.606 8.3586C24.6696 8.43249 24.7333 8.49582 24.7545 8.53804C24.7969 8.58027 25.1469 8.88638 25.253 8.98138C25.359 9.07638 25.7621 9.41415 25.8469 9.4986C25.9424 9.57249 26.1651 9.8786 26.2499 9.96304C26.3242 10.0475 26.5257 10.3958 26.5999 10.5014C26.6742 10.6069 26.6848 10.6703 26.706 10.7125C26.7272 10.7547 26.759 10.7653 26.7802 10.8075C26.8014 10.8497 27.003 11.2508 27.0348 11.3353C27.0666 11.4092 27.1196 11.5569 27.1302 11.5886C27.1302 11.6203 27.1939 11.6942 27.2045 11.7364C27.2151 11.7786 27.4166 12.2325 27.4378 12.2747C27.459 12.3275 27.4802 12.3908 27.4802 12.4225C27.4802 12.4542 27.512 12.5069 27.5227 12.5175C27.5227 12.5386 27.6605 12.8236 27.6923 12.9503C27.7242 13.0769 27.7242 13.1614 27.7454 13.2036C27.756 13.2353 27.7984 13.3408 27.809 13.4042C27.809 13.4675 27.9681 13.9636 27.9681 14.0903C27.9787 14.2169 28.0423 14.6919 28.0529 14.7447C28.0636 14.7975 28.0529 14.9242 28.0636 14.9558C28.0636 14.998 28.0954 15.0719 28.106 15.1458C28.106 15.2197 28.1378 15.6736 28.1484 15.7475C28.1484 15.8214 28.1802 16.4336 28.1802 16.4758C28.1802 16.5286 28.159 16.5392 28.159 16.5497C28.159 16.5708 28.106 16.5919 28.159 16.6447C28.159 16.6447 28.1802 16.7186 28.1802 16.7503C28.1802 16.7819 28.159 17.2886 28.159 17.3625C28.159 17.4258 28.1378 17.7847 28.1272 17.8797C28.1166 17.9747 28.0848 18.228 28.0848 18.2703C28.0848 18.323 28.0636 18.323 28.0529 18.4075C28.0529 18.5025 28.0423 18.6397 28.0317 18.6819C28.0317 18.7347 27.9893 18.8719 27.9787 18.9247C27.9787 18.9669 27.9787 19.0936 27.9575 19.1358C27.9469 19.178 27.8833 19.2308 27.8833 19.2625C27.8726 19.2836 27.862 19.3364 27.8408 19.3575C27.8196 19.3786 27.8196 19.4525 27.862 19.4736C27.9045 19.5053 27.8833 19.558 27.862 19.5686C27.8302 19.5792 27.7984 19.6636 27.8302 19.7058C27.8726 19.748 27.8514 19.7797 27.8408 19.7903C27.8302 19.8008 27.7772 19.8325 27.8196 19.8853C27.8726 19.938 27.8408 20.0119 27.8302 20.033C27.8196 20.0436 27.7772 20.033 27.756 20.0647C27.7454 20.0964 27.7878 20.128 27.809 20.1597C27.8302 20.2019 27.809 20.223 27.7878 20.2547C27.7666 20.2864 27.6923 20.3075 27.7136 20.3286C27.7348 20.3392 27.7454 20.3497 27.7454 20.3814C27.7454 20.4236 27.7348 20.4553 27.7136 20.4658C27.703 20.4658 27.6711 20.4869 27.6711 20.5186C27.6711 20.5503 27.6711 20.5925 27.6711 20.6136C27.6711 20.6347 27.6923 20.6664 27.6817 20.6875C27.6817 20.7192 27.6817 20.7297 27.6605 20.7297C27.6393 20.7297 27.6181 20.7297 27.6075 20.7719C27.5863 20.8142 27.5863 20.8986 27.5757 20.9408C27.5757 20.983 27.5757 20.9936 27.5439 21.0042C27.5226 21.0042 27.5226 21.0042 27.512 21.0358C27.512 21.0675 27.512 21.0992 27.5014 21.1203C27.5014 21.1308 27.4696 21.1836 27.4908 21.2364C27.4908 21.2892 27.5014 21.3103 27.5333 21.3314C27.5651 21.3525 27.5545 21.4158 27.5333 21.4264C27.512 21.4264 27.4696 21.458 27.459 21.4792C27.4484 21.5003 27.459 21.6164 27.459 21.6375C27.4484 21.6586 27.3954 21.7008 27.3954 21.7114C27.3954 21.7325 27.3954 21.743 27.4166 21.7536C27.4378 21.7642 27.4166 21.8275 27.4166 21.838C27.4166 21.8592 27.3848 21.8803 27.3742 21.8908C27.3636 21.8908 27.3105 21.9225 27.353 21.9542C27.3848 21.9753 27.3742 21.9858 27.3742 22.0069C27.3742 22.028 27.3317 22.1969 27.3105 22.2286C27.2999 22.2708 27.1833 22.6719 27.1302 22.788C27.0878 22.8936 26.8969 23.3792 26.8651 23.453C26.8333 23.5375 26.706 23.833 26.6848 23.8858C26.6636 23.928 26.5893 24.0336 26.5787 24.0547C26.5681 24.0758 26.356 24.498 26.3242 24.5508C26.2924 24.6036 26.1333 24.9414 26.1121 24.973C26.0908 25.0047 26.0696 25.0892 26.0696 25.1314C26.0696 25.1736 26.0272 25.2369 26.006 25.2897C25.9848 25.3319 25.8363 25.5114 25.8151 25.5536C25.8045 25.5958 25.7515 25.6592 25.7515 25.6908C25.7408 25.7225 25.7515 25.7542 25.7302 25.7858C25.709 25.8175 25.709 25.8175 25.6878 25.8492C25.6666 25.8808 25.6348 25.9547 25.6348 25.9969C25.6348 26.0392 25.4969 26.208 25.4757 26.2292C25.4545 26.2608 25.4545 26.303 25.4439 26.3347C25.4333 26.3558 25.3908 26.3875 25.3802 26.4192C25.3802 26.4403 25.3696 26.4719 25.3484 26.5036C25.3378 26.5353 25.2636 26.6197 25.253 26.6514C25.2318 26.6936 25.2318 26.7253 25.2105 26.7675C25.1893 26.8097 24.8712 27.2953 24.8287 27.3692C24.7863 27.4536 24.6696 27.6014 24.6272 27.6436C24.6272 27.6436 24.4257 27.8864 24.4045 27.9497C24.3727 28.0025 24.2136 28.1714 24.203 28.2453C24.203 28.3086 24.1606 28.3297 24.1393 28.3719C24.1181 28.4036 23.7363 28.7203 23.6939 28.773C23.6939 28.773 23.5878 28.8997 23.5666 28.9103C23.5454 28.9208 23.4818 28.963 23.4606 28.9842C23.4393 29.0053 22.3363 29.9025 22.2727 29.9553C22.2091 30.008 21.6681 30.4197 21.6257 30.4514C21.5833 30.483 21.5409 30.5358 21.4772 30.578C21.4136 30.6203 21.2333 30.7258 21.1591 30.768C21.0848 30.8103 20.65 31.0214 20.5651 31.0636C20.4803 31.1058 19.8439 31.3064 19.7485 31.3275C19.6636 31.3592 19.5151 31.4014 19.4515 31.4119C19.3985 31.4119 19.356 31.4119 19.3136 31.4119C19.2712 31.4119 19.1651 31.4647 19.1015 31.4858C19.0379 31.5069 18.4227 31.6336 18.2848 31.6547C18.147 31.6653 17.6909 31.7392 17.6061 31.7392C17.5212 31.7392 15.453 31.7814 15.347 31.7814C15.2409 31.7814 14.9227 31.7708 14.8803 31.7603C14.8379 31.7497 14.7955 31.718 14.7636 31.718C14.7318 31.718 14.0318 31.6969 13.9894 31.6864C13.947 31.6864 13.4273 31.6125 13.3531 31.5914C13.2682 31.5703 13.0773 31.5386 13.0137 31.528C12.95 31.5175 12.7167 31.4542 12.6425 31.4542C12.5682 31.4542 12.3137 31.4225 12.2712 31.4119C12.2288 31.3908 12.2288 31.3697 12.1864 31.3592C12.144 31.3486 12.0379 31.3169 11.9743 31.3064C11.9212 31.2853 11.5925 31.148 11.5288 31.1164C11.4652 31.0847 11.2319 30.9475 11.1788 30.9264C11.1258 30.9158 11.0303 30.8736 10.9879 30.8419C10.9455 30.8103 10.6591 30.673 10.6061 30.6625C10.5531 30.6519 10.4894 30.6097 10.447 30.578C10.4046 30.5464 10.2455 30.483 10.1925 30.4619C10.15 30.4408 10.0016 30.3669 9.99096 30.3458C9.98035 30.3458 9.95914 30.2825 9.93793 30.2825C9.91671 30.2825 9.83187 30.2508 9.83187 30.2508C9.83187 30.2508 9.78944 30.1875 9.72581 30.1558C9.67278 30.1347 9.61975 30.0925 9.59853 30.0714C9.57732 30.0503 9.01521 29.628 8.89854 29.5436C8.79248 29.4486 8.24097 28.963 8.16673 28.8575C8.10309 28.7625 7.72127 28.2875 7.67885 28.2242C7.63643 28.1608 7.61522 28.0975 7.61522 28.0764C7.61522 28.0658 7.594 28.0025 7.55158 27.9708C7.50916 27.9392 7.27582 27.5169 7.25461 27.4958C7.2334 27.4642 7.2334 27.3797 7.21219 27.3692C7.19098 27.3586 7.13795 27.2847 7.11673 27.2636C7.09552 27.2319 7.0637 27.1686 7.0637 27.1264C7.0637 27.0842 7.01067 27.0736 7.01067 27.0208C7.01067 26.968 7.00007 26.9047 6.94704 26.873C6.94704 26.873 6.89401 26.8097 6.89401 26.778C6.89401 26.7569 6.86219 26.7253 6.84098 26.7042C6.81977 26.683 6.76674 26.6092 6.76674 26.5669C6.76674 26.5247 6.73492 26.4508 6.71371 26.3875C6.68189 26.3242 6.62886 26.2397 6.59704 26.208C6.56522 26.1658 6.5228 26.1236 6.5228 26.0814C6.5228 26.0392 6.5228 25.9336 6.51219 25.9019C6.50159 25.8703 6.45916 25.7964 6.44856 25.7542C6.43795 25.7119 6.20462 25.1736 6.1622 25.0258C6.10917 24.8675 5.84402 23.9703 5.8228 23.8647C5.80159 23.7486 5.68493 23.1469 5.68493 23.1047C5.68493 23.073 5.65311 22.9358 5.66371 22.9147C5.66371 22.883 5.66371 22.693 5.66371 22.6403C5.6425 22.598 5.62129 22.503 5.62129 22.4714C5.62129 22.4503 5.58947 22.313 5.57887 22.2708C5.56826 22.2286 5.52584 22.1547 5.52584 22.123C5.52584 22.0914 5.50462 21.8592 5.50462 21.8592C5.50462 21.8592 5.54705 21.838 5.53644 21.8275C5.53644 21.8064 5.50462 21.7853 5.50462 21.7853C5.50462 21.7853 5.48341 21.7008 5.48341 21.6586C5.48341 21.6269 5.44099 21.2786 5.43038 21.2153C5.43038 21.1519 5.43038 20.508 5.43038 20.4764C5.43038 20.4447 5.41978 20.4342 5.43038 20.4236C5.45159 20.4236 5.45159 20.318 5.43038 20.2758C5.40917 20.223 5.38796 20.128 5.38796 20.0858C5.38796 20.033 5.38796 19.8219 5.38796 19.7903C5.38796 19.7586 5.36675 18.9353 5.37735 18.8192C5.37735 18.7242 5.41978 18.3019 5.41978 18.2808C5.41978 18.2703 5.41978 18.2386 5.45159 18.228C5.47281 18.2175 5.43038 18.228 5.43038 18.1964C5.43038 18.1647 5.45159 17.8164 5.4622 17.7319C5.47281 17.6475 5.56826 17.1725 5.57887 17.0775C5.60008 16.9719 5.61068 16.8242 5.6425 16.7819C5.66371 16.7397 5.69553 16.7819 5.69553 16.6236C5.69553 16.6236 5.75917 16.5708 5.74856 16.518C5.73796 16.4547 5.78038 16.4019 5.78038 16.4019C5.78038 16.4019 5.80159 16.3914 5.8228 16.328C5.84402 16.2753 5.8228 16.1169 5.84402 16.0747C5.86523 16.0325 6.11977 15.1036 6.18341 14.9453C6.23644 14.7869 6.41674 14.4069 6.45916 14.2908C6.49098 14.1642 6.49098 14.1219 6.51219 14.0797C6.54401 14.048 6.56522 14.0375 6.59704 14.0058C6.62886 13.9847 6.59704 13.9319 6.59704 13.9108C6.61825 13.8792 6.65007 13.7947 6.68189 13.763C6.72431 13.7314 6.68189 13.7208 6.68189 13.6892C6.68189 13.6575 6.73492 13.5308 6.73492 13.5308C6.73492 13.5308 6.76674 13.5308 6.78795 13.4569C6.80916 13.3725 6.96825 12.9397 7.00007 12.8975C7.02128 12.8553 7.21219 12.4436 7.28643 12.3486C7.36067 12.2536 7.44552 12.0742 7.48794 12.0214C7.53037 11.9686 7.65764 11.7153 7.71067 11.6519C7.7637 11.578 7.93339 11.3247 8.01824 11.2508C8.10309 11.1769 8.24097 11.008 8.294 10.9658C8.34703 10.9236 8.45309 10.8286 8.48491 10.8075C8.51672 10.7864 8.6546 10.6492 8.73945 10.6069C8.8243 10.5753 8.97278 10.3747 8.97278 10.3747C8.97278 10.3747 9.10005 10.2269 9.14248 10.2164C9.1849 10.2058 9.29096 10.2375 9.25914 10.1319C9.25914 10.1319 9.25914 10.1003 9.29096 10.0897C9.33339 10.0897 9.41823 9.9736 9.46066 9.9736C9.50308 9.9736 9.54551 9.9736 9.56672 9.94193C9.58793 9.91026 9.48187 9.86804 9.58793 9.84693C9.69399 9.81526 9.82126 9.70971 9.82126 9.70971C9.82126 9.70971 9.80005 9.61471 9.84247 9.61471C9.87429 9.61471 9.94853 9.5936 10.0016 9.5936C10.0546 9.5936 10.097 9.61471 10.1076 9.57249C10.1182 9.53026 10.0546 9.45638 10.1288 9.46693C10.2031 9.47749 10.2455 9.46693 10.2985 9.36138C10.341 9.26638 10.3622 9.32971 10.394 9.29804C10.4364 9.26638 10.447 9.18193 10.5 9.16082C10.5531 9.13971 10.5955 9.09749 10.6485 9.09749C10.7016 9.09749 10.744 9.09749 10.7652 9.00249C10.7652 9.00249 10.797 9.00249 10.8288 9.00249C10.85 8.99193 10.8606 8.99193 10.8819 8.9286C10.9031 8.86526 10.9349 8.84415 10.9879 8.81249C11.0409 8.78082 11.5182 8.43249 11.6031 8.36915C11.6879 8.31638 11.9425 8.10526 11.9743 8.09471C12.0061 8.09471 12.0273 8.0736 12.0591 8.06304C12.0909 8.05249 12.1334 7.9786 12.1758 7.9786C12.2076 7.9786 12.25 7.95749 12.25 7.95749C12.25 7.95749 12.2712 7.91526 12.3031 7.90471C12.3349 7.90471 12.3667 7.90471 12.3773 7.89415C12.3773 7.87304 12.3773 7.79915 12.4303 7.7886C12.4728 7.76749 12.5576 7.68304 12.5788 7.68304C12.6212 7.68304 12.6425 7.68304 12.6425 7.65138C12.6425 7.63026 12.6425 7.56693 12.6425 7.53526C12.6531 7.51415 12.7591 7.4086 12.7909 7.38749C12.8228 7.36638 12.844 7.34526 12.844 7.3136C12.844 7.29249 12.844 7.23971 12.8652 7.20804C12.8864 7.16582 12.9394 7.08138 12.95 6.95471C12.95 6.8386 12.95 6.70138 12.897 6.61693C12.8546 6.54304 12.7591 6.43749 12.6425 6.41638C12.5258 6.39526 12.4303 6.37415 12.4197 6.37415C12.3985 6.37415 12.3879 6.35304 12.3455 6.35304C12.3031 6.35304 12.2818 6.3636 12.25 6.37415C12.2076 6.38471 12.0803 6.41638 11.9849 6.43749C11.9 6.44804 11.8152 6.49026 11.7834 6.49026C11.7515 6.49026 11.7303 6.49026 11.6879 6.52193C11.6561 6.5536 11.6137 6.59582 11.5925 6.60638C11.5712 6.61693 11.4864 6.60638 11.4334 6.61693C11.3803 6.62749 11.3697 6.62749 11.3379 6.65915C11.3061 6.68026 11.2743 6.70138 11.2425 6.70138C11.2106 6.70138 11.0516 6.71193 10.9985 6.72249C10.9455 6.72249 10.8925 6.77527 10.8394 6.77527C10.8394 6.77527 10.7122 6.80693 10.6697 6.80693C10.6273 6.80693 10.5425 6.85971 10.4894 6.85971C10.4364 6.85971 10.3728 6.88082 10.2349 6.81749C10.097 6.75415 10.0334 6.73304 10.0122 6.70138C10.0016 6.66971 9.98035 6.47971 9.98035 6.43749C9.98035 6.38471 9.98035 6.39526 9.98035 6.37415C9.95914 6.35304 9.95914 6.33193 9.98035 6.30026C10.0016 6.2686 10.0652 6.18415 10.097 6.12082C10.1288 6.04693 10.1925 5.96249 10.2349 5.92027C10.2667 5.86749 10.2667 5.81471 10.3516 5.75138C10.4364 5.68804 10.394 5.63526 10.394 5.63526C10.394 5.63526 10.4152 5.58249 10.4364 5.56138C10.4576 5.52971 10.6803 5.18138 10.7546 5.08638C10.8288 4.99138 10.9985 4.75915 11.0303 4.71693C11.0728 4.67471 11.0303 4.64304 11.0728 4.60082C11.1046 4.5586 11.147 4.50582 11.1682 4.48471C11.1788 4.4636 11.1682 4.41082 11.2 4.37915C11.2213 4.34749 11.2212 4.34749 11.2955 4.28415C11.3697 4.22082 11.4546 4.0836 11.497 3.99915C11.5394 3.91471 11.6243 3.77749 11.6667 3.7036C11.7091 3.62971 11.7197 3.59804 11.7303 3.52415C11.7303 3.45026 11.7303 3.45026 11.7515 3.42915C11.7728 3.39749 11.7515 3.34471 11.7515 3.30249C11.7515 3.27082 11.7515 3.18638 11.6879 3.14415C11.6349 3.10193 11.5712 3.02804 11.4652 2.99638C11.3591 2.96471 11.2213 2.9436 11.1046 2.95415C10.9879 2.95415 10.9561 3.00693 10.9137 3.0386C10.8713 3.07026 10.7122 3.18638 10.6697 3.20749C10.6273 3.23915 10.3622 3.49249 10.3091 3.52415C10.2667 3.55582 10.2243 3.57693 10.2031 3.6086C10.1925 3.64026 10.1819 3.66138 10.1713 3.67193C10.1713 3.69304 9.85308 3.92526 9.78944 3.9886C9.72581 4.05193 9.5349 4.19971 9.49247 4.22082C9.45005 4.25249 9.43945 4.25249 9.38642 4.28415C9.33339 4.31582 9.26975 4.44249 9.23793 4.45304C9.21672 4.47415 9.1743 4.48471 9.14248 4.47415C9.12127 4.47415 9.08945 4.44249 9.10005 4.49527C9.10005 4.54804 8.99399 4.62193 8.97278 4.63249C8.95157 4.6536 8.58036 4.90693 8.54854 4.92804C8.51672 4.94915 8.48491 4.97026 8.43188 4.98082C8.37885 4.98082 8.25157 4.98082 8.21976 4.95971C8.18794 4.94915 8.14551 4.83304 8.13491 4.90693C8.13491 4.90693 8.14551 4.92804 8.10309 4.92804C8.07127 4.92804 8.02885 4.92804 7.99703 4.89638C7.97582 4.86471 7.93339 4.82249 7.91218 4.7486C7.89097 4.67471 7.90158 4.57971 7.93339 4.50582C7.96521 4.42138 7.96521 4.37915 7.98642 4.32638L8.15612 4.06249C8.20915 3.97804 8.27279 3.86193 8.28339 3.84082C8.3046 3.81971 8.3046 3.76693 8.31521 3.74582C8.32582 3.71415 8.36824 3.69304 8.41066 3.62971C8.45309 3.56638 8.56975 3.38693 8.60157 3.3236C8.644 3.26026 8.6546 3.16526 8.70763 3.14415C8.75006 3.12304 8.75006 3.10193 8.77127 3.05971C8.79248 3.01749 8.91975 2.82749 8.95157 2.76415C8.99399 2.71138 9.01521 2.63749 9.04702 2.57415C9.07884 2.51082 9.13187 2.38415 9.19551 2.31026C9.24854 2.22582 9.37581 2.02526 9.41823 1.9936C9.46066 1.96193 9.48187 1.8986 9.48187 1.87749C9.49247 1.85638 9.48187 1.77193 9.51369 1.75082C9.5349 1.75082 9.55611 1.69804 9.55611 1.65582C9.55611 1.62415 9.5455 1.49749 9.55611 1.47638C9.57732 1.44471 9.61975 1.41304 9.61975 1.37082C9.61975 1.3286 9.61975 1.21249 9.60914 1.17026C9.58793 1.11749 9.51369 0.980265 9.46066 0.938042C9.40763 0.89582 9.32278 0.769154 9.16369 0.748042C9.0046 0.726931 8.91975 0.70582 8.91975 0.70582C8.91975 0.70582 8.8349 0.684709 8.79248 0.70582C8.73945 0.748042 8.69703 0.758598 8.66521 0.769154C8.63339 0.769154 8.58036 0.790265 8.53794 0.821931C8.50612 0.853598 8.26218 1.10693 8.23036 1.14915C8.20915 1.18082 8.15612 1.24415 8.10309 1.31804C8.06067 1.39193 7.64703 1.85638 7.61522 1.87749C7.5834 1.90915 7.55158 1.94082 7.53037 2.00415C7.50916 2.0886 7.53037 2.06749 7.49855 2.09915C7.46673 2.13082 7.4137 2.12026 7.37128 2.19415C7.32885 2.25749 7.25461 2.40526 7.21219 2.43693C7.21219 2.43693 6.95764 2.69026 6.91522 2.73249C6.8834 2.77471 6.8728 2.81693 6.86219 2.83804C6.84098 2.86971 6.65007 3.04915 6.61825 3.10193C6.58643 3.15471 6.59704 3.19693 6.56522 3.21804C6.54401 3.24971 6.24704 3.59804 6.19401 3.66138C6.14098 3.73526 6.00311 3.86193 5.93947 3.8936C5.87583 3.91471 5.78038 3.92527 5.70614 3.83027C5.6319 3.73527 5.57887 3.62971 5.58947 3.55582C5.58947 3.48193 5.62129 3.27082 5.65311 3.15471C5.68493 3.0386 5.84402 2.54249 5.87583 2.4686C5.91826 2.39471 6.1622 1.83526 6.21523 1.75082C6.25765 1.66638 6.30007 1.59249 6.32129 1.52915C6.3425 1.47638 6.36371 1.40249 6.38492 1.33915C6.40613 1.27582 6.46977 1.14915 6.49098 1.1386C6.50159 1.12804 6.54401 1.1386 6.56522 1.05415C6.58643 0.959154 6.67128 0.843042 6.67128 0.843042C6.67128 0.843042 6.73492 0.726931 6.76674 0.684709C6.78795 0.642487 6.81977 0.558042 6.78795 0.505265C6.76674 0.452487 6.76674 0.431376 6.78795 0.399709C6.79855 0.368042 6.78795 0.294154 6.7031 0.220265C6.62886 0.146376 6.58643 0.0724869 6.3425 0.0830425C6.09856 0.0830425 6.07735 0.13582 6.03492 0.13582C5.9925 0.13582 5.96068 0.178042 5.93947 0.209709C5.92886 0.251931 5.83341 0.315265 5.78038 0.357487C5.72735 0.399709 5.39856 0.695265 5.36675 0.748042C5.32432 0.790265 5.14402 0.980265 5.1122 1.01193C5.09099 1.0436 5.08039 1.07526 5.05917 1.09638C5.03796 1.12804 4.70918 1.47638 4.67736 1.52915C4.64554 1.58193 4.63493 1.64526 4.60312 1.67693C4.5819 1.7086 4.36978 2.03582 4.32736 2.07804C4.28494 2.13082 4.17888 2.2786 4.16827 2.32082C4.16827 2.32082 4.1612 2.34545 4.14706 2.39471C4.14706 2.39471 4.11524 2.45804 4.09403 2.50026C4.07282 2.54249 3.8713 2.86971 3.85009 2.91193C3.82888 2.95415 3.81827 2.97526 3.79706 2.98582C3.77585 2.99638 3.75464 3.0386 3.74403 3.07026C3.73343 3.10193 3.52131 3.40804 3.50009 3.46082C3.45767 3.50304 3.29858 3.66138 3.23494 3.67193C3.1607 3.68249 2.9804 3.64026 2.92737 3.6086C2.86373 3.58749 2.72586 3.43971 2.69404 3.38693C2.65161 3.33415 2.59858 3.23915 2.57737 3.20749C2.54555 3.17582 2.54555 3.15471 2.55616 3.10193C2.55616 3.04915 2.57737 3.00693 2.55616 2.9436C2.53495 2.89082 2.53495 2.77471 2.53495 2.72193C2.53495 2.66915 2.55616 2.35249 2.57737 2.23638C2.59858 2.12026 2.58798 1.93026 2.58798 1.8986C2.58798 1.85638 2.6198 1.85638 2.6198 1.82471C2.6198 1.79304 2.6198 1.69804 2.59858 1.66638C2.59858 1.64526 2.57737 1.62415 2.59858 1.60304C2.60919 1.58193 2.6304 1.57138 2.6198 1.52915C2.59858 1.47638 2.57737 1.43415 2.55616 1.40249C2.53495 1.36026 2.42889 1.26526 2.37586 1.24415C2.33344 1.22304 2.33344 1.21249 2.20616 1.17026" fill="#00AA3C" style="fill:#00AA3C;fill:color(display-p3 0.0000 0.6667 0.2353);fill-opacity:1;"/>
<path id="Vector_2" d="M10.7139 13.2774C10.7139 13.2774 10.2048 13.5202 10.1624 13.5413C10.1199 13.5624 10.0669 13.5624 10.0351 13.5835C10.0351 13.5835 9.71692 13.7947 9.63207 13.8474C9.55783 13.8897 9.3351 14.048 9.27147 14.1113C9.20783 14.1641 9.17601 14.2063 9.16541 14.238C9.1548 14.2697 9.13359 14.2802 9.09116 14.3119C9.04874 14.333 9.03814 14.3435 8.9745 14.3963C8.91086 14.4491 8.68814 14.7341 8.64571 14.808C8.60329 14.8819 8.56087 14.9769 8.55026 15.0085C8.55026 15.0402 8.55026 15.093 8.52905 15.1247C8.50784 15.1563 8.4442 15.2302 8.43359 15.3252C8.43359 15.4202 8.43359 15.473 8.45481 15.568C8.46541 15.663 8.55026 15.8635 8.58208 15.8952C8.6245 15.9374 8.64571 15.948 8.68814 15.9585C8.73056 15.9585 8.74117 15.9902 8.77299 16.0219C8.7942 16.043 8.85783 16.0852 8.93208 16.0852C9.00632 16.0852 9.05935 16.0852 9.11238 16.0641C9.16541 16.043 9.25026 16.0219 9.29268 16.0113C9.3351 16.0008 9.46237 15.9269 9.53662 15.8952C9.58965 15.8635 9.63207 15.8319 9.6851 15.7791C9.74874 15.7263 9.8548 15.568 9.91843 15.5047C9.98207 15.4413 10.1306 15.2724 10.1942 15.2091C10.2684 15.1563 10.4063 15.0191 10.4699 14.9769C10.5336 14.9347 10.6927 14.8185 10.7457 14.808C10.7881 14.808 10.8412 14.7552 10.9154 14.7235C10.979 14.6919 11.2442 14.6074 11.3078 14.6074C11.3608 14.6074 11.3715 14.5863 11.4669 14.5758C11.5518 14.5547 11.7533 14.5335 11.8593 14.5335C11.9654 14.5335 12.1245 14.5019 12.2411 14.5019C12.3578 14.5019 12.4533 14.5335 12.5169 14.5652C12.5805 14.5863 12.6124 14.6285 12.6548 14.6391C12.6972 14.6497 12.7927 14.6708 12.8669 14.7024C12.9305 14.7341 13.0472 14.7763 13.1427 14.8291C13.2381 14.8924 13.429 14.9874 13.4926 15.0297C13.5563 15.0719 13.5987 15.1035 13.6623 15.1247C13.7366 15.1458 13.9487 15.1563 14.0229 15.1458C14.1078 15.1352 14.2245 15.1035 14.3729 14.9241C14.3729 14.9241 14.426 14.9241 14.3942 14.5969C14.3623 14.2697 14.3729 14.3435 14.3411 14.238C14.3093 14.1324 14.2669 14.1219 14.2245 14.0797C14.182 14.0374 13.9911 13.9002 13.9699 13.858C13.9381 13.8158 13.9275 13.7841 13.8745 13.7524C13.832 13.7208 13.7472 13.6363 13.7154 13.6363C13.6836 13.6363 13.673 13.6363 13.6517 13.6258C13.6305 13.6258 13.6305 13.573 13.5775 13.5519C13.5351 13.5308 13.4714 13.4885 13.429 13.4674C13.3972 13.4463 13.3972 13.4252 13.3442 13.4252C13.3017 13.4252 13.2699 13.4252 13.2275 13.4147C13.1851 13.3935 13.079 13.3091 13.0472 13.3091C13.0154 13.3091 12.9623 13.3091 12.9411 13.3091C12.9199 13.2985 12.8987 13.2563 12.8563 13.2458C12.8139 13.2458 12.5699 13.2247 12.5063 13.2141C12.4427 13.2141 12.3684 13.1719 12.3048 13.1719C12.2411 13.1719 11.9972 13.1719 11.9336 13.1824C11.8805 13.1824 11.8169 13.1824 11.7745 13.1719C11.7321 13.1719 11.4033 13.1719 11.3396 13.193C11.276 13.2141 11.2336 13.2563 11.1912 13.2669C11.1381 13.2669 10.9366 13.288 10.873 13.2985C10.8093 13.3091 10.7775 13.3091 10.7139 13.3302" fill="#00AA3C" style="fill:#00AA3C;fill:color(display-p3 0.0000 0.6667 0.2353);fill-opacity:1;"/>
<path id="Vector_3" d="M11.6666 16.0262C11.6666 16.0262 11.5075 16.0051 11.4651 16.0262C11.4227 16.0473 11.3378 16.0684 11.2954 16.079C11.253 16.079 11.2423 16.1317 11.2105 16.1528C11.1787 16.174 11.1681 16.1951 11.1257 16.1951C11.0939 16.1951 11.0302 16.2056 11.009 16.2373C10.9878 16.269 10.9348 16.3323 10.9136 16.3745C10.8924 16.4167 10.8287 16.5645 10.7969 16.6595C10.7545 16.7545 10.7545 16.7967 10.7439 16.8495C10.7439 16.8917 10.7227 17.0184 10.7227 17.0817C10.7227 17.1451 10.7227 17.3245 10.7757 17.3984C10.8181 17.4723 10.8817 17.5356 10.9666 17.5884C11.0408 17.6517 11.1469 17.7256 11.1893 17.7573C11.2317 17.7784 11.2317 17.789 11.2742 17.7995C11.3166 17.7995 11.359 17.8101 11.3908 17.7995C11.4333 17.7784 11.4757 17.7995 11.5075 17.8312C11.5287 17.8523 11.5817 17.8734 11.6348 17.8734C11.6772 17.8734 11.762 17.8206 11.8151 17.8101C11.8681 17.7995 11.9211 17.789 11.953 17.789C11.9954 17.7995 12.0272 17.7784 12.0484 17.7678C12.0696 17.7467 12.1226 17.7045 12.1651 17.6834C12.2075 17.6728 12.2499 17.6517 12.2711 17.6201C12.2923 17.5884 12.3348 17.504 12.356 17.4828C12.3772 17.4617 12.3878 17.409 12.4196 17.3773C12.4514 17.3456 12.4833 17.2823 12.5045 17.2506C12.5151 17.2295 12.5363 17.1873 12.5363 17.1556C12.5363 17.1345 12.5469 17.0501 12.5469 16.9867C12.5469 16.9234 12.5575 16.8601 12.5363 16.8178C12.5045 16.7756 12.4939 16.6912 12.462 16.6595C12.4408 16.6173 12.3984 16.5645 12.3878 16.5328C12.3878 16.5012 12.3666 16.4484 12.3666 16.4062C12.3666 16.364 12.356 16.3006 12.3029 16.269C12.2605 16.2373 12.1545 16.1951 12.1014 16.174C12.0378 16.1528 11.9848 16.1212 11.9317 16.1001C11.8787 16.079 11.8257 16.0473 11.8045 16.0473C11.7833 16.0473 11.762 16.0473 11.7514 16.0473C11.7408 16.0473 11.7302 16.0262 11.709 16.0156" fill="#00AA3C" style="fill:#00AA3C;fill:color(display-p3 0.0000 0.6667 0.2353);fill-opacity:1;"/>
<path id="Vector_4" d="M23.4604 12.9836C23.4604 12.9836 23.2695 12.9836 23.1846 12.9625C23.0998 12.952 22.6437 12.9625 22.5907 12.9625C22.5271 12.9625 22.474 12.9625 22.4422 12.952C22.4104 12.9414 22.3574 12.9309 22.2937 12.9625C22.2301 12.9942 22.071 12.9731 21.9862 12.9942C21.9119 13.0047 21.7952 13.0153 21.7634 13.0047C21.7422 13.0047 21.6998 12.9836 21.6256 13.0047C21.5513 13.0364 21.1589 13.1103 21.0846 13.1314C21.0104 13.1525 20.9998 13.1314 20.9256 13.1631C20.8407 13.1842 20.7877 13.1947 20.7453 13.2053C20.7134 13.2159 20.2468 13.3742 20.2043 13.4059C20.1513 13.4481 20.0983 13.4164 20.0559 13.4692C20.0134 13.5114 19.9604 13.5431 19.918 13.5642C19.918 13.5642 19.7801 13.617 19.7165 13.6381C19.6528 13.6592 19.6634 13.6381 19.5998 13.6803C19.5362 13.7225 19.4301 13.7753 19.4089 13.807C19.3877 13.8386 19.3559 13.8703 19.3347 13.8914C19.3134 13.9125 19.0801 14.0392 18.9953 14.092C18.9104 14.1553 18.7725 14.2503 18.7195 14.282C18.6665 14.3136 18.4225 14.5353 18.3483 14.6092C18.2741 14.6831 18.115 14.8097 18.0725 14.8731C18.0301 14.9259 17.9453 15.0209 17.9241 15.0314C17.9029 15.0525 17.8498 15.0314 17.8604 15.0631C17.8604 15.0842 17.8922 15.1264 17.8498 15.1264C17.8074 15.1264 17.7862 15.1475 17.765 15.1686C17.7438 15.1897 17.6907 15.2425 17.6695 15.2742C17.6589 15.3059 17.5635 15.4325 17.5422 15.4747C17.521 15.517 17.4998 15.5486 17.468 15.5592C17.4468 15.5592 17.4256 15.5592 17.4256 15.6014C17.4256 15.6436 17.4044 15.6753 17.3832 15.6964C17.3726 15.7175 17.2877 15.8336 17.2665 15.8547C17.2453 15.8759 17.1923 15.9181 17.171 15.9603C17.171 15.992 17.1498 16.0236 17.118 16.0975C17.0756 16.1609 16.8529 16.5197 16.821 16.5831C16.7892 16.6464 16.7362 16.6992 16.7362 16.7203C16.7362 16.7414 16.7468 16.8047 16.7044 16.8259C16.662 16.847 16.6195 16.8786 16.6089 16.9103C16.5983 16.942 16.5983 16.9842 16.5771 17.0159C16.5665 17.0581 16.5347 17.0686 16.5135 17.0897C16.4923 17.1109 16.471 17.1531 16.4604 17.1953C16.4498 17.2375 16.3862 17.3536 16.365 17.3853C16.3438 17.417 16.3013 17.4592 16.2907 17.4803C16.2907 17.5014 16.3013 17.5436 16.2907 17.5753C16.2695 17.607 16.2059 17.6281 16.2059 17.6703C16.1953 17.7125 16.2059 17.7547 16.2059 17.7759C16.1953 17.8075 16.1423 17.8497 16.1104 17.892C16.0786 17.9447 16.0786 18.0292 16.0786 18.1031C16.0786 18.177 16.0574 18.1875 16.0256 18.2297C15.9938 18.272 15.9832 18.3247 15.9514 18.4197C15.9195 18.5147 15.7923 18.937 15.771 19.0531C15.7498 19.1692 15.7392 19.2431 15.718 19.2853C15.6862 19.3275 15.6756 19.3381 15.665 19.3697C15.6544 19.412 15.612 19.4964 15.612 19.5386C15.612 19.5386 15.6226 19.5914 15.6226 19.6231C15.6226 19.6547 15.5801 19.7075 15.5695 19.7497C15.5483 19.7814 15.5483 19.8553 15.5483 19.9186C15.5483 19.982 15.5483 20.0559 15.5271 20.0875C15.5059 20.1192 15.4741 20.2036 15.4741 20.2353C15.4741 20.267 15.4953 20.2986 15.4953 20.3725C15.4953 20.457 15.4529 20.6047 15.4423 20.6681C15.4423 20.7314 15.3892 21.1431 15.3998 21.217C15.3998 21.2909 15.4423 21.6286 15.4635 21.7447C15.4741 21.8503 15.4635 21.8609 15.4635 21.8925C15.4635 21.9242 15.5059 21.9559 15.4953 21.9875C15.4847 22.0192 15.4104 22.0614 15.5165 22.0825C15.5165 22.0825 15.5483 22.1142 15.5801 22.1564C15.612 22.1881 15.6332 22.2197 15.6756 22.2514C15.718 22.2831 15.8029 22.3464 15.8559 22.3675C15.8983 22.3992 15.9301 22.4203 15.9832 22.4203C16.0362 22.4203 16.0574 22.3992 16.1104 22.3992C16.1635 22.3992 16.1529 22.4097 16.2271 22.3992C16.3013 22.3781 16.3968 22.3147 16.4392 22.2725C16.4816 22.2197 16.5347 22.1459 16.5665 22.072C16.5983 21.9981 16.662 21.882 16.6938 21.8186C16.7256 21.7553 16.7362 21.7025 16.7786 21.6497C16.8104 21.6075 16.8423 21.5336 16.8529 21.4597C16.8635 21.3964 16.9483 21.1009 16.9695 20.9847C17.0013 20.8581 17.0226 20.6786 17.0332 20.6259C17.0438 20.5625 17.0756 20.4464 17.0756 20.4147C17.0756 20.3831 17.0968 20.3514 17.118 20.2459C17.1392 20.1509 17.1498 19.982 17.171 19.9081C17.1923 19.8342 17.2135 19.8236 17.2241 19.7392C17.2453 19.6547 17.2241 19.5492 17.2559 19.4964C17.2771 19.4331 17.3938 19.1481 17.415 19.0636C17.4362 18.9792 17.4998 18.8103 17.5104 18.7259C17.5316 18.6414 17.6377 18.2614 17.6589 18.2297C17.6907 18.1875 17.7013 18.1559 17.7225 18.0714C17.7438 17.9975 17.7544 17.9342 17.7862 17.8814C17.818 17.8392 17.871 17.7547 17.8922 17.7125C17.9135 17.6703 17.8922 17.5858 17.9559 17.5542C18.0195 17.5225 18.0195 17.4803 18.0407 17.4275C18.0619 17.3853 18.1362 17.2903 18.1574 17.227C18.1892 17.1636 18.2528 16.9947 18.2847 16.9525C18.3165 16.9103 18.3377 16.8892 18.3483 16.847C18.3589 16.8153 18.3695 16.7731 18.4013 16.7414C18.4013 16.7414 18.4438 16.6675 18.4756 16.6359C18.5074 16.6147 18.5286 16.5514 18.5604 16.5197C18.5922 16.4881 18.6135 16.4247 18.6347 16.4036C18.6559 16.3825 18.6665 16.3614 18.6771 16.3614C18.6877 16.3614 18.7513 16.3297 18.7407 16.277C18.7407 16.2347 18.7831 16.182 18.8044 16.1609C18.815 16.1397 18.868 16.0342 18.9316 15.9709C18.9847 15.9075 19.0589 15.8125 19.0907 15.7914C19.1225 15.7703 19.1438 15.7281 19.1756 15.7281C19.2074 15.7281 19.2286 15.7281 19.2498 15.7175C19.271 15.6964 19.2498 15.6859 19.3028 15.6542C19.3559 15.6225 19.4301 15.5275 19.4725 15.4853C19.515 15.4536 19.5786 15.3375 19.6104 15.3375C19.6422 15.3375 19.6316 15.3586 19.6953 15.3375C19.7483 15.3375 19.7695 15.2953 19.8119 15.2847C19.8544 15.2742 19.9074 15.2214 19.9498 15.1897C19.9922 15.1581 20.374 14.9047 20.4483 14.852C20.5225 14.8097 20.7665 14.6725 20.8301 14.6514C20.8937 14.6197 20.968 14.5986 21.0316 14.5881C21.0846 14.5881 21.074 14.5564 21.1165 14.5564C21.1695 14.5564 21.2119 14.5564 21.2225 14.5459C21.2437 14.5353 21.2756 14.4931 21.318 14.472C21.3604 14.4614 21.6256 14.3875 21.7316 14.3664C21.8483 14.3453 22.2089 14.2503 22.3149 14.2503C22.421 14.2503 22.7074 14.2397 22.7604 14.2292C22.8028 14.2292 22.7922 14.2292 22.824 14.2397C22.8452 14.2397 23.1634 14.2397 23.2589 14.2397C23.3543 14.2397 23.6513 14.2186 23.7149 14.2186C23.768 14.2186 23.7892 14.2292 23.821 14.2503C23.8528 14.2609 23.8634 14.2609 23.9271 14.2609C23.9907 14.2609 24.1922 14.2609 24.3301 14.2609C24.468 14.2503 24.6058 14.1764 24.6801 14.1236C24.7543 14.0709 24.7861 13.9547 24.7861 13.9336C24.7861 13.902 24.8073 13.8914 24.8073 13.8597C24.8073 13.8281 24.7967 13.8175 24.7861 13.7859C24.7861 13.7647 24.7861 13.617 24.7755 13.5959C24.7649 13.5747 24.7225 13.522 24.6801 13.4692C24.6377 13.427 24.5952 13.3636 24.574 13.332C24.5528 13.3109 24.4467 13.2159 24.4149 13.1947C24.3831 13.1736 24.3195 13.1736 24.2983 13.1631C24.277 13.1631 24.224 13.1103 24.2134 13.0892C24.1922 13.0681 24.171 13.0575 24.1286 13.0575C24.0967 13.0575 23.9695 13.0575 23.9164 13.0364C23.874 13.0259 23.8104 12.9836 23.7892 12.9731C23.7574 12.9625 23.7043 12.9414 23.6831 12.9731C23.6619 13.0047 23.6725 13.0047 23.6195 13.0047C23.5664 13.0047 23.5664 13.0047 23.5346 13.0047C23.5134 12.9836 23.4816 12.9731 23.4392 12.9731" fill="#00AA3C" style="fill:#00AA3C;fill:color(display-p3 0.0000 0.6667 0.2353);fill-opacity:1;"/>
<path id="Vector_5" d="M21.2222 16.1602C21.2222 16.1602 21.1586 16.2236 21.1374 16.2764C21.1056 16.3186 21.0843 16.3714 21.0631 16.3925C21.0525 16.4136 21.0101 16.4664 20.9889 16.5297C20.9677 16.5825 20.9359 16.6775 20.9253 16.7091C20.9147 16.7302 20.8616 16.8041 20.851 16.8358C20.8298 16.8675 20.8086 16.9414 20.8086 16.9941C20.8086 17.0469 20.8404 17.1947 20.8616 17.2475C20.8934 17.2897 20.9147 17.3847 20.9571 17.4269C20.9889 17.4691 20.9677 17.4797 20.9995 17.5008C21.0207 17.5219 21.0631 17.5641 21.095 17.6064C21.1162 17.6486 21.148 17.7014 21.1586 17.7225C21.1798 17.7436 21.1798 17.7436 21.2222 17.7647C21.254 17.7647 21.2965 17.7647 21.3283 17.7752C21.3495 17.7858 21.4025 17.8175 21.4343 17.828C21.4662 17.8386 21.551 17.8597 21.5828 17.8702C21.6146 17.8702 21.6359 17.8702 21.6677 17.8914C21.6889 17.8914 21.7737 17.9019 21.8374 17.9019C21.9116 17.9019 21.9859 17.8702 22.0495 17.8491C22.1237 17.828 22.1768 17.7752 22.2086 17.7752C22.2404 17.7752 22.2934 17.733 22.3359 17.7014C22.3783 17.6802 22.3995 17.638 22.4313 17.6169C22.4737 17.5958 22.5056 17.5852 22.5374 17.5641C22.5586 17.5325 22.5904 17.5008 22.5904 17.4797C22.5904 17.4586 22.5904 17.353 22.6116 17.3425C22.6222 17.3214 22.6328 17.2791 22.654 17.2369C22.6752 17.1947 22.6859 17.1314 22.6965 17.1208C22.7071 17.1102 22.6965 17.0786 22.7177 17.068C22.7389 17.068 22.7813 17.0258 22.7177 16.9941C22.7177 16.9941 22.6965 16.9097 22.7177 16.8991C22.7177 16.878 22.7495 16.8464 22.7177 16.783C22.6965 16.7197 22.6965 16.6986 22.6752 16.6775C22.654 16.6564 22.6222 16.6141 22.6116 16.5825C22.5904 16.5402 22.5798 16.498 22.5586 16.4769C22.5374 16.4558 22.3783 16.2975 22.3465 16.2764C22.3252 16.2447 22.2934 16.213 22.2722 16.2025C22.2404 16.2025 22.198 16.2025 22.1662 16.1814C22.1343 16.1708 22.1343 16.1602 22.0919 16.1497C22.0601 16.1497 22.0283 16.1497 21.9859 16.1497C21.9434 16.1497 21.901 16.1075 21.848 16.0969C21.7949 16.0864 21.7631 16.0547 21.7101 16.0547C21.6677 16.0547 21.6359 16.0547 21.5934 16.0758C21.551 16.0864 21.4874 16.0864 21.4662 16.1075C21.4343 16.1286 21.4025 16.1497 21.3707 16.1814C21.3389 16.2025 21.3071 16.1814 21.2328 16.2236" fill="#00AA3C" style="fill:#00AA3C;fill:color(display-p3 0.0000 0.6667 0.2353);fill-opacity:1;"/>
<path id="Vector_6" d="M13.0471 25.2381C13.0471 25.2381 12.8031 25.217 12.7501 25.2381C12.6865 25.2592 12.6865 25.2803 12.6653 25.2909C12.6334 25.2909 12.538 25.2909 12.4956 25.3226C12.4637 25.3437 12.3365 25.4176 12.2941 25.4492C12.2516 25.4809 12.2198 25.502 12.2092 25.5231C12.2092 25.5548 12.135 25.7237 12.1456 25.8503C12.1456 25.977 12.1986 26.0931 12.188 26.1353C12.1668 26.1776 12.188 26.1987 12.2198 26.2198C12.2516 26.2515 12.2622 26.2937 12.3047 26.3042C12.3577 26.3042 12.3683 26.3042 12.4107 26.3253C12.4531 26.3465 12.4637 26.3781 12.485 26.3992C12.5062 26.4203 12.6865 26.5576 12.7819 26.6209C12.888 26.6737 13.0577 26.7581 13.1956 26.8215C13.3228 26.8742 13.4713 26.927 13.5243 26.9376C13.5774 26.9587 13.5774 26.9798 13.6198 26.9798C13.6516 26.9798 13.7365 26.9798 13.7789 26.9903C13.8213 27.0115 13.885 27.0642 13.9274 27.0748C13.9698 27.0748 14.0016 27.0537 14.0334 27.0748C14.0759 27.0959 14.0653 27.1381 14.1183 27.1487C14.1713 27.1487 14.3198 27.1276 14.3728 27.1381C14.4259 27.1381 14.5637 27.1487 14.6168 27.1698C14.6804 27.1803 14.6804 27.1909 14.7228 27.2015C14.7546 27.212 15.4865 27.212 15.6031 27.212C15.7198 27.212 15.794 27.212 15.8577 27.212C15.9213 27.2015 15.9637 27.1698 16.0061 27.1698C16.0486 27.1698 16.1122 27.1909 16.1758 27.1909C16.2501 27.1909 16.2607 27.1909 16.2925 27.1698C16.3243 27.1381 16.3668 27.1381 16.3986 27.1381C16.441 27.1381 16.4622 27.1381 16.494 27.1487C16.5364 27.1592 16.6107 27.1276 16.6531 27.1276C16.6955 27.1276 17.1304 27.0642 17.2152 27.0537C17.3001 27.0326 17.3955 27.0537 17.4273 27.022C17.4486 26.9903 17.4804 26.9587 17.5334 26.9587C17.5864 26.9587 17.6077 26.927 17.6395 26.9165C17.6713 26.8953 17.7455 26.8953 17.8092 26.8637C17.8728 26.8426 18.0743 26.7581 18.2122 26.6948C18.3607 26.642 18.5198 26.5576 18.6364 26.4942C18.7637 26.4309 18.7743 26.4098 18.8167 26.3992C18.8592 26.3781 18.8592 26.3676 18.9228 26.357C18.9864 26.3359 19.0713 26.2937 19.1031 26.262C19.1455 26.2303 19.2622 26.1353 19.294 26.072C19.3258 26.0087 19.4213 25.8926 19.4531 25.8715C19.4849 25.8503 19.5167 25.8292 19.5379 25.787C19.5485 25.7448 19.5379 25.6815 19.5592 25.6709C19.5698 25.6603 19.6016 25.6181 19.6016 25.5442C19.6016 25.4703 19.6016 25.3648 19.5804 25.312C19.5592 25.2487 19.5273 25.1853 19.4955 25.1537C19.4637 25.1115 19.3895 25.0798 19.3789 25.0692C19.3576 25.0692 19.3364 25.0376 19.3046 25.0587C19.2834 25.0692 19.2622 25.1009 19.241 25.0798C19.2198 25.0692 19.2092 25.0481 19.2092 25.027C19.2092 25.0165 19.1773 24.9742 19.1243 24.9742C19.0819 24.9742 19.0289 24.9742 18.997 24.9742C18.9652 24.9742 18.9652 24.9531 18.9228 24.9531C18.8698 24.9531 18.8379 24.9637 18.7849 24.9742C18.7425 24.9848 18.5516 24.9848 18.4986 24.9953C18.4561 25.0059 18.4137 25.0165 18.3395 25.0376C18.2652 25.0587 18.0531 25.1431 17.947 25.1853C17.841 25.2381 17.7031 25.2909 17.597 25.3437C17.5016 25.3965 17.2789 25.4915 17.194 25.5337C17.1092 25.5759 17.0667 25.597 17.0137 25.6181C16.9713 25.6181 16.8758 25.6392 16.8122 25.6498C16.7486 25.6498 16.5258 25.7237 16.4516 25.7237C16.3774 25.7448 16.0804 25.7765 15.9955 25.7765C15.9107 25.7765 15.4334 25.7765 15.3062 25.7765C15.1789 25.7765 14.9562 25.7448 14.8713 25.7237C14.7759 25.7026 14.4895 25.6603 14.3728 25.6392C14.2668 25.6181 13.9698 25.5337 13.8107 25.4809C13.6622 25.4387 13.4819 25.3965 13.3653 25.3542C13.2486 25.312 13.1319 25.2592 13.0259 25.2276" fill="#00AA3C" style="fill:#00AA3C;fill:color(display-p3 0.0000 0.6667 0.2353);fill-opacity:1;"/>
<path id="Vector_7" d="M51.45 7.42188H43.9304C43.6668 7.42188 43.4531 7.63454 43.4531 7.89687V9.05799C43.4531 9.32032 43.6668 9.53299 43.9304 9.53299H51.45C51.7136 9.53299 51.9273 9.32032 51.9273 9.05799V7.89687C51.9273 7.63454 51.7136 7.42188 51.45 7.42188Z" fill="#00AA3C" style="fill:#00AA3C;fill:color(display-p3 0.0000 0.6667 0.2353);fill-opacity:1;"/>
<path id="Vector_8" d="M55.6926 0.03125H39.6882C39.4231 0.03125 39.2109 0.242361 39.2109 0.50625V16.4346C39.2109 16.6985 39.4231 16.9096 39.6882 16.9096H55.6926C55.9578 16.9096 56.1699 16.6985 56.1699 16.4346V0.50625C56.1699 0.242361 55.9578 0.03125 55.6926 0.03125ZM54.0487 14.5557C54.0487 14.6824 53.9427 14.7985 53.8154 14.7985H41.5761C41.4488 14.7985 41.3427 14.6929 41.3427 14.5557V2.37458C41.3427 2.24792 41.4488 2.14236 41.5761 2.14236H53.8154C53.9427 2.14236 54.0487 2.24792 54.0487 2.37458V14.5557Z" fill="#00AA3C" style="fill:#00AA3C;fill:color(display-p3 0.0000 0.6667 0.2353);fill-opacity:1;"/>
<path id="Vector_9" d="M73.1176 33.3015C73.1176 33.5654 72.9055 33.7765 72.6403 33.7765H71.4737C71.2085 33.7765 70.9964 33.5654 70.9964 33.3015V27.6859C70.9964 27.5593 70.8903 27.4431 70.7525 27.4431H65.1101C64.8449 27.4431 64.6328 27.232 64.6328 26.9681V25.807C64.6328 25.5431 64.8449 25.332 65.1101 25.332H72.6297C72.8949 25.332 73.107 25.5431 73.107 25.807V33.2909L73.1176 33.3015Z" fill="#00AA3C" style="fill:#00AA3C;fill:color(display-p3 0.0000 0.6667 0.2353);fill-opacity:1;"/>
<path id="Vector_10" d="M67.4618 32.3726C67.4618 33.1538 66.8255 33.7765 66.0512 33.7765C65.277 33.7765 64.6406 33.1432 64.6406 32.3726C64.6406 31.6021 65.277 30.9688 66.0512 30.9688C66.8255 30.9688 67.4618 31.6021 67.4618 32.3726Z" fill="#00AA3C" style="fill:#00AA3C;fill:color(display-p3 0.0000 0.6667 0.2353);fill-opacity:1;"/>
<path id="Vector_11" d="M76.884 21.1328H60.8796C60.6145 21.1328 60.4023 21.3439 60.4023 21.6078V37.5361C60.4023 37.8 60.6145 38.0111 60.8796 38.0111H76.884C77.1492 38.0111 77.3613 37.8 77.3613 37.5361V21.6078C77.3613 21.3439 77.1492 21.1328 76.884 21.1328ZM75.2401 35.6573C75.2401 35.7839 75.1341 35.8895 74.9962 35.8895H62.7569C62.6296 35.8895 62.5235 35.7839 62.5235 35.6573V23.4761C62.5235 23.3495 62.6296 23.2334 62.7569 23.2334H74.9962C75.1235 23.2334 75.2401 23.3389 75.2401 23.4761V35.6573Z" fill="#00AA3C" style="fill:#00AA3C;fill:color(display-p3 0.0000 0.6667 0.2353);fill-opacity:1;"/>
<path id="Vector_12" d="M47.684 31.2016C47.684 31.4655 47.4719 31.6766 47.2067 31.6766H46.0401C45.7749 31.6766 45.5628 31.4655 45.5628 31.2016V23.475C45.5628 23.3483 45.4568 23.2322 45.3189 23.2322H39.6765C39.4113 23.2322 39.1992 23.0211 39.1992 22.7572V21.5961C39.1992 21.3322 39.4113 21.1211 39.6765 21.1211H47.1961C47.4613 21.1211 47.6734 21.3322 47.6734 21.5961V31.1911L47.684 31.2016Z" fill="#00AA3C" style="fill:#00AA3C;fill:color(display-p3 0.0000 0.6667 0.2353);fill-opacity:1;"/>
<path id="Vector_13" d="M56.1577 21.6078C56.1577 21.3439 55.9456 21.1328 55.6804 21.1328H54.5137C54.2486 21.1328 54.0365 21.3439 54.0365 21.6078V23.0011C54.0365 23.1278 53.9304 23.2334 53.8031 23.2334H50.282C50.0168 23.2334 49.8047 23.4445 49.8047 23.7084V24.8695C49.8047 25.1334 50.0168 25.3445 50.282 25.3445H55.691C55.9562 25.3445 56.1683 25.1334 56.1683 24.8695V21.5973L56.1577 21.6078Z" fill="#00AA3C" style="fill:#00AA3C;fill:color(display-p3 0.0000 0.6667 0.2353);fill-opacity:1;"/>
<path id="Vector_14" d="M42.0098 37.9987C42.1371 37.9987 42.2643 37.9459 42.3492 37.8615L46.178 34.0509C46.178 34.0509 46.2204 33.977 46.2204 33.9348C46.2204 33.8504 46.1461 33.7765 46.0613 33.7765H41.5644C41.4371 33.7765 41.3204 33.6709 41.3204 33.5337V31.8976C41.3204 31.7709 41.4265 31.6654 41.5644 31.6654H42.9643C43.2295 31.6654 43.4416 31.4543 43.4416 31.1904V30.0293C43.4416 29.7654 43.2295 29.5543 42.9643 29.5543H41.5644C41.4371 29.5543 41.3204 29.4487 41.3204 29.3115V27.6754C41.3204 27.5487 41.4265 27.4431 41.5644 27.4431H42.9643C43.2295 27.4431 43.4416 27.232 43.4416 26.9681V25.807C43.4416 25.5431 43.2295 25.332 42.9643 25.332H39.6765C39.4113 25.332 39.1992 25.5431 39.1992 25.807V35.402C39.1992 35.6659 39.4113 35.877 39.6765 35.877H40.928C41.0128 35.877 41.0871 35.9509 41.0871 36.0354C41.0871 36.0776 41.0659 36.1198 41.0447 36.1515L39.475 37.7243C39.475 37.7243 39.4326 37.7981 39.4326 37.8404C39.4326 37.9248 39.5068 37.9987 39.5916 37.9987H41.9992H42.0098Z" fill="#00AA3C" style="fill:#00AA3C;fill:color(display-p3 0.0000 0.6667 0.2353);fill-opacity:1;"/>
<path id="Vector_15" d="M54.5241 37.9996C54.259 37.9996 54.0469 37.7885 54.0469 37.5246V35.3607C54.0469 35.234 54.0999 35.1074 54.1848 35.0229L55.8923 33.3235C55.8923 33.3235 55.956 33.2812 55.9984 33.2812C56.0832 33.2812 56.1575 33.3551 56.1575 33.4396V37.5246C56.1575 37.7885 55.9453 37.9996 55.6802 37.9996H54.5135H54.5241Z" fill="#00AA3C" style="fill:#00AA3C;fill:color(display-p3 0.0000 0.6667 0.2353);fill-opacity:1;"/>
<path id="Vector_16" d="M56.0212 30.2187C56.106 30.1342 56.159 30.0181 56.159 29.8809V27.9281C56.159 27.6642 55.9469 27.4531 55.6818 27.4531H54.5151C54.25 27.4531 54.0378 27.6642 54.0378 27.9281V29.0048C54.0378 29.1315 53.9848 29.2581 53.9 29.3426L45.4682 37.7342C45.4682 37.7342 45.4258 37.8081 45.4258 37.8503C45.4258 37.9348 45.5 38.0087 45.5849 38.0087H48.003C48.1303 38.0087 48.2576 37.9559 48.3424 37.8715L56.0318 30.2292L56.0212 30.2187Z" fill="#00AA3C" style="fill:#00AA3C;fill:color(display-p3 0.0000 0.6667 0.2353);fill-opacity:1;"/>
<path id="Vector_17" d="M73.1178 13.1624C73.1178 12.8985 72.9057 12.6874 72.6405 12.6874H70.1799C70.0527 12.6874 69.936 12.5818 69.936 12.4551V4.49625C69.936 4.36958 70.0421 4.26403 70.1799 4.26403H76.8829C77.1481 4.26403 77.3602 4.05292 77.3602 3.78903V2.62792C77.3602 2.36403 77.1481 2.15292 76.8829 2.15292H70.1799C70.0527 2.15292 69.936 2.04736 69.936 1.91014V0.50625C69.936 0.242361 69.7239 0.03125 69.4587 0.03125H68.2921C68.0269 0.03125 67.8148 0.242361 67.8148 0.50625V1.89958C67.8148 2.02625 67.7088 2.14236 67.5709 2.14236H60.8679C60.6027 2.14236 60.3906 2.35347 60.3906 2.61736V3.77847C60.3906 4.04236 60.6027 4.25347 60.8679 4.25347H67.5709C67.6981 4.25347 67.8148 4.35903 67.8148 4.48569V12.4446C67.8148 12.5713 67.6981 12.6768 67.5709 12.6768H65.1103C64.8451 12.6768 64.633 12.8879 64.633 13.1518V14.3129C64.633 14.5768 64.8451 14.7879 65.1103 14.7879H67.5709C67.6981 14.7879 67.8148 14.904 67.8148 15.0201V16.424C67.8148 16.6879 68.0269 16.899 68.2921 16.899H69.4587C69.7239 16.899 69.936 16.6879 69.936 16.424V15.0201C69.936 14.8935 70.0421 14.7879 70.1799 14.7879H72.6405C72.9057 14.7879 73.1178 14.5663 73.1178 14.3129V13.1518V13.1624Z" fill="#00AA3C" style="fill:#00AA3C;fill:color(display-p3 0.0000 0.6667 0.2353);fill-opacity:1;"/>
<path id="Vector_18" d="M65.5675 9.6684C65.6523 9.58396 65.7053 9.45729 65.7053 9.33063V6.92396C65.7053 6.83951 65.6311 6.76562 65.5462 6.76562C65.5038 6.76562 65.4614 6.78674 65.4296 6.80785L60.5402 11.674C60.4554 11.7584 60.4023 11.8745 60.4023 12.0117V14.4184C60.4023 14.5028 60.4766 14.5767 60.5614 14.5767C60.6039 14.5767 60.6463 14.5556 60.6781 14.5345L65.5675 9.6684Z" fill="#00AA3C" style="fill:#00AA3C;fill:color(display-p3 0.0000 0.6667 0.2353);fill-opacity:1;"/>
<path id="Vector_19" d="M72.1926 9.6684C72.1077 9.58396 72.0547 9.45729 72.0547 9.33063V6.92396C72.0547 6.83951 72.1289 6.76562 72.2138 6.76562C72.2562 6.76562 72.2986 6.78674 72.3304 6.80785L77.2198 11.674C77.3046 11.7584 77.3577 11.8745 77.3577 12.0117V14.4184C77.3577 14.5028 77.2834 14.5767 77.1986 14.5767C77.1562 14.5767 77.1137 14.5556 77.0819 14.5345L72.1926 9.6684Z" fill="#00AA3C" style="fill:#00AA3C;fill:color(display-p3 0.0000 0.6667 0.2353);fill-opacity:1;"/>
<path id="Vector_20" d="M112.805 22.3234C112.805 22.0806 112.996 21.8906 113.24 21.8906H114.873C115.117 21.8906 115.308 22.0806 115.308 22.3234V31.4751C115.308 32.4145 115.308 33.2273 115.86 34.1034C116.316 34.8212 117.153 35.3067 118.203 35.3067C119.253 35.3067 120.091 34.8423 120.505 34.1456C121.078 33.2906 121.078 32.4567 121.078 31.4751V22.3234C121.078 22.0806 121.269 21.8906 121.513 21.8906H123.156C123.39 21.8906 123.591 22.0806 123.591 22.3234V31.4751C123.613 33.5017 123.284 35.0534 121.916 36.1723C120.993 37.0062 119.763 37.5128 118.235 37.5128C117.132 37.5128 115.541 37.2067 114.491 36.1934C112.964 34.8528 112.773 33.3434 112.794 31.4751V22.3234H112.805Z" fill="#00AA3C" style="fill:#00AA3C;fill:color(display-p3 0.0000 0.6667 0.2353);fill-opacity:1;"/>
<path id="Vector_21" d="M85.8348 22.3234C85.8348 22.0806 86.0257 21.8906 86.2697 21.8906H93.4923C93.7363 21.8906 93.9272 22.0806 93.9272 22.3234V23.569C93.9272 23.8117 93.7363 24.0017 93.4923 24.0017H88.5606C88.4439 24.0017 88.3378 24.0967 88.3378 24.2234V28.2978C88.3378 28.414 88.4333 28.509 88.5606 28.509H93.4923C93.7363 28.509 93.9272 28.699 93.9272 28.9417V30.1873C93.9272 30.4301 93.7363 30.6201 93.4923 30.6201H88.5606C88.4439 30.6201 88.3378 30.7151 88.3378 30.8312V36.7951C88.3378 37.0273 88.1469 37.2278 87.903 37.2278H86.2591C86.0257 37.2278 85.8242 37.0378 85.8242 36.7951V22.3234H85.8348Z" fill="#00AA3C" style="fill:#00AA3C;fill:color(display-p3 0.0000 0.6667 0.2353);fill-opacity:1;"/>
<path id="Vector_22" d="M170.608 24.2156C170.608 24.0995 170.512 23.9939 170.385 23.9939H167.564C167.33 23.9939 167.129 23.8039 167.129 23.5611V22.3156C167.129 22.0728 167.32 21.8828 167.564 21.8828H176.133C176.377 21.8828 176.568 22.0728 176.568 22.3156V23.5611C176.568 23.8039 176.377 23.9939 176.133 23.9939H173.312C173.196 23.9939 173.1 24.0889 173.1 24.2156V36.7978C173.1 37.03 172.909 37.2306 172.665 37.2306H171.032C170.788 37.2306 170.597 37.0406 170.597 36.7978V24.2156H170.608Z" fill="#00AA3C" style="fill:#00AA3C;fill:color(display-p3 0.0000 0.6667 0.2353);fill-opacity:1;"/>
<path id="Vector_23" d="M152.737 24.3817C151.03 22.2073 148.474 21.8906 146.405 21.8906H142.142C141.898 21.8906 141.707 22.0806 141.707 22.3234V36.7951C141.707 37.0378 141.898 37.2278 142.142 37.2278H146.565C151.984 37.2278 154.424 34.019 154.424 29.5328C154.424 27.5167 153.904 25.7645 152.737 24.3712M146.681 35.1167H144.242C144.125 35.1167 144.03 35.0217 144.03 34.8951V24.2023C144.03 24.0862 144.125 23.9806 144.242 23.9806H146.713C148.707 23.9806 149.852 24.6773 150.669 25.6167C151.528 26.6617 152.027 28.0867 152.027 29.5645C152.027 32.784 150.34 35.1062 146.692 35.1062" fill="#00AA3C" style="fill:#00AA3C;fill:color(display-p3 0.0000 0.6667 0.2353);fill-opacity:1;"/>
<path id="Vector_24" d="M180.193 21.8906H178.56C178.32 21.8906 178.125 22.0844 178.125 22.3234V36.7951C178.125 37.0341 178.32 37.2278 178.56 37.2278H180.193C180.433 37.2278 180.628 37.0341 180.628 36.7951V22.3234C180.628 22.0844 180.433 21.8906 180.193 21.8906Z" fill="#00AA3C" style="fill:#00AA3C;fill:color(display-p3 0.0000 0.6667 0.2353);fill-opacity:1;"/>
<path id="Vector_25" d="M103.079 21.6094C98.6669 21.6094 95.082 25.1772 95.082 29.5683C95.082 33.9594 98.6669 37.5272 103.079 37.5272C107.491 37.5272 111.076 33.9594 111.076 29.5683C111.076 25.1772 107.491 21.6094 103.079 21.6094ZM103.079 35.226C99.9396 35.226 97.3941 32.6927 97.3941 29.5683C97.3941 26.4438 99.9396 23.9105 103.079 23.9105C106.218 23.9105 108.764 26.4438 108.764 29.5683C108.764 32.6927 106.218 35.226 103.079 35.226Z" fill="#00AA3C" style="fill:#00AA3C;fill:color(display-p3 0.0000 0.6667 0.2353);fill-opacity:1;"/>
<path id="Vector_26" d="M190.559 21.6094C186.147 21.6094 182.562 25.1772 182.562 29.5683C182.562 33.9594 186.147 37.5272 190.559 37.5272C194.971 37.5272 198.556 33.9594 198.556 29.5683C198.556 25.1772 194.971 21.6094 190.559 21.6094ZM190.559 35.226C187.42 35.226 184.875 32.6927 184.875 29.5683C184.875 26.4438 187.42 23.9105 190.559 23.9105C193.699 23.9105 196.244 26.4438 196.244 29.5683C196.244 32.6927 193.699 35.226 190.559 35.226Z" fill="#00AA3C" style="fill:#00AA3C;fill:color(display-p3 0.0000 0.6667 0.2353);fill-opacity:1;"/>
<path id="Vector_27" d="M138.823 36.8056C138.823 37.0378 138.632 37.2384 138.388 37.2384H136.945C136.797 37.2384 136.67 37.1645 136.595 37.059L128.874 26.0917C128.874 26.0917 128.81 26.0284 128.757 26.0284C128.673 26.0284 128.609 26.0917 128.609 26.1762V36.8162C128.609 37.0484 128.418 37.249 128.174 37.249H126.732C126.488 37.249 126.297 37.059 126.297 36.8162V22.334C126.297 22.0912 126.488 21.9012 126.732 21.9012H128.174C128.323 21.9012 128.45 21.9751 128.524 22.0806L136.235 33.0478C136.235 33.0478 136.309 33.1112 136.351 33.1112C136.436 33.1112 136.5 33.0478 136.5 32.9634V22.3234C136.5 22.0806 136.691 21.8906 136.935 21.8906H138.377C138.621 21.8906 138.812 22.0806 138.812 22.3234V36.8056H138.823Z" fill="#00AA3C" style="fill:#00AA3C;fill:color(display-p3 0.0000 0.6667 0.2353);fill-opacity:1;"/>
<path id="Vector_28" d="M213.002 36.8056C213.002 37.0378 212.811 37.2384 212.567 37.2384H211.125C210.976 37.2384 210.849 37.1645 210.775 37.059L203.054 26.0917C203.054 26.0917 202.98 26.0284 202.937 26.0284C202.863 26.0284 202.789 26.0917 202.789 26.1762V36.8162C202.789 37.0484 202.598 37.249 202.354 37.249H200.911C200.667 37.249 200.477 37.059 200.477 36.8162V22.334C200.477 22.0912 200.667 21.9012 200.911 21.9012H202.354C202.502 21.9012 202.63 21.9751 202.704 22.0806L210.414 33.0478C210.414 33.0478 210.489 33.1112 210.531 33.1112C210.616 33.1112 210.68 33.0478 210.68 32.9634V22.3234C210.68 22.0806 210.87 21.8906 211.114 21.8906H212.557C212.801 21.8906 212.992 22.0806 212.992 22.3234V36.8056H213.002Z" fill="#00AA3C" style="fill:#00AA3C;fill:color(display-p3 0.0000 0.6667 0.2353);fill-opacity:1;"/>
<path id="Vector_29" d="M169.015 36.6367L163.012 22.1545C162.948 21.9962 162.789 21.8906 162.609 21.8906H161.071C160.89 21.8906 160.731 21.9962 160.668 22.1545L154.665 36.6367C154.665 36.6367 154.633 36.7423 154.633 36.7951C154.633 37.0378 154.824 37.2278 155.068 37.2278H156.818C157.009 37.2278 157.168 37.1117 157.221 36.9534L158.387 33.8712C158.451 33.7023 158.61 33.5862 158.79 33.5862H164.889C165.08 33.5862 165.228 33.7023 165.292 33.8712L166.458 36.9534C166.522 37.1223 166.681 37.2278 166.862 37.2278H168.611C168.845 37.2278 169.046 37.0378 169.046 36.7951C169.046 36.7423 169.036 36.679 169.015 36.6367ZM164.39 31.5806C164.369 31.6334 164.316 31.6756 164.252 31.6756H159.427C159.363 31.6756 159.31 31.6334 159.289 31.5806C159.289 31.5595 159.278 31.549 159.278 31.5278C159.278 31.5173 159.278 31.4962 159.289 31.4751L161.707 25.0573C161.728 25.0045 161.781 24.9623 161.834 24.9623C161.887 24.9623 161.951 25.0045 161.972 25.0573L164.39 31.4751C164.39 31.4751 164.401 31.5067 164.401 31.5278C164.401 31.549 164.401 31.5595 164.39 31.5806Z" fill="#00AA3C" style="fill:#00AA3C;fill:color(display-p3 0.0000 0.6667 0.2353);fill-opacity:1;"/>
<path id="Vector_30" d="M92.6026 3.39747C92.6026 3.2708 92.7086 3.16524 92.8359 3.16524H95.6359C95.8904 3.16524 96.1025 2.95413 96.1025 2.71135V0.769132C96.1025 0.515799 95.8904 0.304688 95.6359 0.304688H86.3026C86.0481 0.304688 85.8359 0.515799 85.8359 0.769132V2.71135C85.8359 2.96469 86.0481 3.16524 86.3026 3.16524H89.092C89.2192 3.16524 89.3253 3.2708 89.3253 3.39747V16.1802C89.3253 16.4336 89.5374 16.6447 89.792 16.6447H92.1465C92.401 16.6447 92.6132 16.4441 92.6132 16.1802V3.39747H92.6026Z" fill="#00AA3C" style="fill:#00AA3C;fill:color(display-p3 0.0000 0.6667 0.2353);fill-opacity:1;"/>
<path id="Vector_31" d="M110.856 0.76132C110.856 0.507986 110.654 0.296875 110.4 0.296875H108.034C107.78 0.296875 107.578 0.507986 107.578 0.76132V6.80965C107.578 6.93632 107.472 7.04188 107.345 7.04188H101.448C101.321 7.04188 101.215 6.93632 101.215 6.80965V0.76132C101.215 0.507986 101.003 0.296875 100.748 0.296875H98.3936C98.139 0.296875 97.9375 0.507986 97.9375 0.76132V16.1724C97.9375 16.4258 98.1496 16.6369 98.3936 16.6369H100.748C101.003 16.6369 101.215 16.4258 101.215 16.1724V10.1241C101.215 9.99743 101.321 9.89188 101.448 9.89188H107.345C107.472 9.89188 107.578 9.99743 107.578 10.1241V16.1724C107.578 16.4258 107.79 16.6369 108.034 16.6369H110.4C110.654 16.6369 110.856 16.4258 110.856 16.1724V0.76132Z" fill="#00AA3C" style="fill:#00AA3C;fill:color(display-p3 0.0000 0.6667 0.2353);fill-opacity:1;"/>
<path id="Vector_32" d="M113.527 16.1724C113.527 16.4258 113.739 16.6369 113.994 16.6369H122.298C122.553 16.6369 122.755 16.4258 122.755 16.1724V14.2302C122.755 13.9769 122.542 13.7763 122.298 13.7763H117.038C116.911 13.7763 116.805 13.6708 116.805 13.5441V10.1241C116.805 9.99743 116.911 9.89188 117.038 9.89188H122.298C122.553 9.89188 122.755 9.68077 122.755 9.42743V7.48521C122.755 7.23188 122.542 7.03132 122.298 7.03132H117.038C116.911 7.03132 116.805 6.92576 116.805 6.7991V3.3791C116.805 3.25243 116.911 3.14688 117.038 3.14688H122.298C122.553 3.14688 122.755 2.94632 122.755 2.69299V0.76132C122.755 0.507986 122.542 0.296875 122.298 0.296875H113.994C113.739 0.296875 113.527 0.507986 113.527 0.76132V16.1724Z" fill="#00AA3C" style="fill:#00AA3C;fill:color(display-p3 0.0000 0.6667 0.2353);fill-opacity:1;"/>
<path id="Vector_33" d="M148.855 0.304688H151.209C151.464 0.304688 151.676 0.515799 151.676 0.769132V16.1802C151.676 16.4336 151.474 16.6341 151.22 16.6341H148.865C148.611 16.6341 148.398 16.423 148.398 16.1697V0.769132C148.398 0.515799 148.611 0.304688 148.865 0.304688H148.855Z" fill="#00AA3C" style="fill:#00AA3C;fill:color(display-p3 0.0000 0.6667 0.2353);fill-opacity:1;"/>
<path id="Vector_34" d="M189.106 0C184.408 0 180.59 3.78945 180.59 8.46556C180.59 13.1417 184.397 16.9417 189.106 16.9417C193.816 16.9417 197.612 13.1522 197.612 8.46556C197.612 3.77889 193.805 0 189.106 0ZM189.106 13.775C186.158 13.775 183.772 11.4 183.772 8.46556C183.772 5.53111 186.158 3.15611 189.106 3.15611C192.055 3.15611 194.441 5.53111 194.441 8.46556C194.441 11.4 192.055 13.775 189.106 13.775Z" fill="#00AA3C" style="fill:#00AA3C;fill:color(display-p3 0.0000 0.6667 0.2353);fill-opacity:1;"/>
<path id="Vector_35" d="M164.371 1.43413C163.416 0.705799 162.303 0.304688 159.534 0.304688H155.006C154.751 0.304688 154.539 0.505243 154.539 0.769132V16.1802C154.539 16.4336 154.741 16.6447 155.006 16.6447H157.36C157.615 16.6447 157.827 16.4441 157.827 16.1802V11.2614C157.827 11.1347 157.933 11.0291 158.06 11.0291H159.895C162.292 11.0291 163.395 10.628 164.509 9.7308C165.548 8.89691 166.237 7.21858 166.237 5.60358C166.237 3.98858 165.569 2.40524 164.371 1.43413ZM161.963 7.74636C161.295 8.10524 160.563 8.16858 159.81 8.16858H158.05C157.922 8.16858 157.816 8.06302 157.816 7.93636V3.39747C157.816 3.2708 157.922 3.16524 158.05 3.16524H159.683C160.5 3.16524 161.263 3.22858 161.921 3.58747C162.568 3.90413 163.056 4.59024 163.056 5.6458C163.056 6.70135 162.568 7.42969 161.974 7.74636" fill="#00AA3C" style="fill:#00AA3C;fill:color(display-p3 0.0000 0.6667 0.2353);fill-opacity:1;"/>
<path id="Vector_36" d="M177.702 1.43413C176.747 0.705799 175.634 0.304688 172.865 0.304688H168.326C168.071 0.304688 167.859 0.505243 167.859 0.769132V16.1802C167.859 16.4336 168.071 16.6447 168.326 16.6447H170.681C170.935 16.6447 171.147 16.4441 171.147 16.1802V11.2614C171.147 11.1347 171.253 11.0291 171.381 11.0291H173.215C175.612 11.0291 176.715 10.628 177.829 9.7308C178.868 8.89691 179.558 7.21858 179.558 5.60358C179.558 3.98858 178.89 2.40524 177.691 1.43413M175.284 7.74636C174.626 8.10524 173.884 8.16858 173.131 8.16858H171.37C171.243 8.16858 171.137 8.06302 171.137 7.93636V3.39747C171.137 3.2708 171.243 3.16524 171.37 3.16524H173.003C173.82 3.16524 174.573 3.22858 175.241 3.58747C175.888 3.90413 176.376 4.59024 176.376 5.6458C176.376 6.70135 175.888 7.42969 175.284 7.74636Z" fill="#00AA3C" style="fill:#00AA3C;fill:color(display-p3 0.0000 0.6667 0.2353);fill-opacity:1;"/>
<path id="Vector_37" d="M141.963 11.3036C141.963 11.3036 142.037 11.3669 142.09 11.3669C142.175 11.3669 142.249 11.3036 142.249 11.2191V0.769132C142.249 0.515799 142.451 0.304688 142.705 0.304688H144.858C145.113 0.304688 145.325 0.515799 145.325 0.769132V16.1802C145.325 16.4336 145.113 16.6447 144.858 16.6447H142.705C142.546 16.6447 142.398 16.5602 142.324 16.4441L135.143 5.6458C135.143 5.6458 135.069 5.57191 135.016 5.57191C134.931 5.57191 134.868 5.6458 134.868 5.73024V16.1802C134.868 16.4336 134.655 16.6447 134.401 16.6447H132.248C131.993 16.6447 131.781 16.4441 131.781 16.1802V0.769132C131.781 0.515799 131.993 0.304688 132.248 0.304688H134.401C134.56 0.304688 134.709 0.389132 134.783 0.515799L141.963 11.3141V11.3036Z" fill="#00AA3C" style="fill:#00AA3C;fill:color(display-p3 0.0000 0.6667 0.2353);fill-opacity:1;"/>
<path id="Vector_38" d="M209.638 11.3036C209.638 11.3036 209.712 11.3669 209.765 11.3669C209.85 11.3669 209.924 11.3036 209.924 11.2191V0.769132C209.924 0.515799 210.126 0.304688 210.38 0.304688H212.533C212.788 0.304688 213 0.515799 213 0.769132V16.1802C213 16.4336 212.788 16.6447 212.533 16.6447H210.38C210.221 16.6447 210.083 16.5602 209.998 16.4441L202.818 5.6458C202.818 5.6458 202.744 5.57191 202.691 5.57191C202.606 5.57191 202.532 5.6458 202.532 5.73024V16.1802C202.532 16.4336 202.33 16.6447 202.065 16.6447H199.912C199.657 16.6447 199.445 16.4441 199.445 16.1802V0.769132C199.445 0.515799 199.657 0.304688 199.912 0.304688H202.065C202.224 0.304688 202.373 0.389132 202.447 0.515799L209.627 11.3141L209.638 11.3036Z" fill="#00AA3C" style="fill:#00AA3C;fill:color(display-p3 0.0000 0.6667 0.2353);fill-opacity:1;"/>
</g>
<defs>
<clipPath id="clip0_5705_143323">
<rect width="213" height="38" fill="white" style="fill:white;fill-opacity:1;"/>
</clipPath>
</defs>
</svg>
