<svg width="120" height="40" viewBox="0 0 120 40" fill="none" xmlns="http://www.w3.org/2000/svg">
<path d="M111.844 23.8013C111.157 24.848 110.349 25.6955 109.419 26.3464C108.489 26.9959 107.526 27.3903 106.534 27.5269C107.717 25.8251 108.31 24.1706 108.31 22.565C108.31 21.8248 108.225 21.2074 108.056 20.7098C107.507 19.0818 106.165 18.2678 104.029 18.2678C102.687 18.2678 101.307 18.686 99.891 19.5195C100.938 17.2685 102.549 14.4362 104.726 11.0214C104.461 10.5991 104.045 10.3872 103.473 10.3872C102.955 10.3872 102.543 10.5614 102.237 10.9099C101.127 12.1783 99.7892 13.9442 98.2254 16.205C95.152 20.6122 93.361 23.8849 92.8397 26.0314C92.5065 26.2906 92.1609 26.5234 91.7957 26.7241C90.5956 27.3848 89.3203 27.7151 87.9669 27.7151C85.7995 27.7151 84.4099 27.1659 83.7966 26.0662C85.2448 25.8976 86.5285 25.6216 87.6491 25.2425C88.2833 25.032 88.8798 24.7797 89.4402 24.4898C90.0005 24.1999 90.4911 23.8612 90.9148 23.4751C91.3371 23.089 91.673 22.6583 91.9211 22.1831C92.1692 21.7078 92.2933 21.2241 92.2933 20.7321C92.2933 20.2401 92.2027 19.847 92.0243 19.5515C91.5169 18.6957 90.5817 18.2678 89.2185 18.2678C87.3257 18.2678 85.472 18.7069 83.6544 19.5836C82.7986 19.985 82.0055 20.4659 81.2766 21.0262C80.5476 21.5865 79.919 22.197 79.3894 22.8577C78.8611 23.5183 78.4457 24.2138 78.1447 24.9428C78.0081 25.2731 77.9077 25.6188 77.8325 25.977C77.4784 26.2586 77.1077 26.5108 76.7174 26.7255C75.5173 27.3862 74.242 27.7165 72.8886 27.7165C70.7212 27.7165 69.3316 27.1673 68.7197 26.0676C70.1679 25.899 71.4516 25.623 72.5722 25.2439C73.2064 25.0334 73.803 24.7811 74.3633 24.4912C74.9236 24.2013 75.4156 23.8626 75.8379 23.4765C76.2602 23.0904 76.5962 22.6597 76.8443 22.1844C77.0924 21.7092 77.2164 21.2255 77.2164 20.7335C77.2164 20.2415 77.1272 19.8484 76.9474 19.5529C76.44 18.6971 75.5048 18.2692 74.1416 18.2692C72.2488 18.2692 70.3951 18.7083 68.5775 19.585C67.7217 19.9864 66.9287 20.4673 66.1997 21.0276C65.4707 21.5879 64.8407 22.1984 64.3125 22.8591C63.7842 23.5197 63.3689 24.2152 63.0678 24.9442C62.9354 25.2662 62.8364 25.6035 62.7626 25.9533C61.6113 26.8328 60.2997 27.2747 58.8278 27.2747C56.6925 27.2747 55.6248 26.4816 55.6248 24.8968C55.6248 23.7455 56.1475 22.2973 57.1943 20.5523C59.2766 21.0499 60.7722 21.298 61.681 21.298C62.0503 21.298 62.3793 20.7321 62.6636 19.6017C62.1242 19.5697 60.6453 19.3425 58.2243 18.9201C59.4718 17.1124 60.8084 15.5109 62.2357 14.117C62.067 13.9052 61.8343 13.7212 61.5388 13.5623C61.4008 13.4884 61.267 13.4271 61.1346 13.3797C61.0022 13.3323 60.8516 13.3086 60.683 13.3086C60.5143 13.3086 60.223 13.4355 59.8105 13.6892C58.4571 14.5352 56.8458 16.0935 54.9753 18.3654L52.5807 17.9696C52.4748 18.1591 52.4009 18.4128 52.3591 18.7306C52.348 18.8686 52.3591 18.9898 52.3912 19.0958C52.4232 19.2017 52.5069 19.2783 52.6449 19.3257C52.7814 19.3731 52.9612 19.4289 53.1843 19.4916C53.4059 19.5543 53.6498 19.6296 53.9132 19.7132C52.4065 21.7245 51.3277 23.4863 50.6768 25C50.2698 25.4515 49.8335 25.8585 49.3624 26.214C48.4007 26.922 47.524 27.2761 46.7309 27.2761C45.5573 27.2761 44.9705 26.784 44.9705 25.8014C44.9705 25.5686 45.0179 25.3261 45.1127 25.0724C45.4193 24.2794 45.9476 23.5448 46.6988 22.8688C46.8466 22.8688 46.9943 22.8005 47.1421 22.6625C47.6815 22.2081 47.9881 21.6158 48.062 20.8868C45.5894 20.7502 43.5377 20.2847 41.9111 19.4916C42.2707 18.7097 42.4505 18.1521 42.4505 17.819C42.4505 17.4859 42.3446 17.2197 42.1341 17.0176C41.5947 16.4893 40.8072 16.2245 39.7716 16.2245C39.4329 16.2245 38.9102 16.658 38.2021 17.5249C37.4509 18.4128 37.0759 19.1418 37.0759 19.7132C37.0759 20.6429 37.6307 21.3621 38.7402 21.8694C38.06 23.7204 36.9296 25.2704 35.3546 26.522C34.5699 27.0224 33.8479 27.2761 33.1914 27.2761C32.5893 27.2761 32.2882 26.798 32.2882 25.8418C32.2882 24.8857 32.6311 23.4459 33.3182 21.521C33.5092 20.9816 33.6876 20.4854 33.8576 20.031C34.0263 19.5766 34.1796 19.1836 34.3176 18.8504C34.4556 18.5173 34.5448 18.2832 34.5866 18.1452C34.1322 18.0295 33.7043 17.9709 33.3029 17.9709C33.1761 17.9709 32.999 18.0002 32.7718 18.0588C32.5447 18.1173 32.2882 18.3152 32.0025 18.6525C31.6429 18.3891 31.0463 18.2567 30.2114 18.2567C28.0134 18.2567 25.8836 18.7375 23.8222 19.6993C21.8346 20.629 20.2289 21.8346 19.0024 23.3134C18.5591 23.8459 18.1981 24.3853 17.911 24.9289C16.3708 26.7269 14.478 27.6775 12.2298 27.7806C9.6889 27.8963 8.37593 27.0112 8.28951 25.1254C8.22679 23.7553 8.77037 22.0033 9.92027 19.8707L11.0576 17.872C12.287 15.9039 14.6578 12.5114 16.3095 10.5573L17.7214 11.0339C19.7913 11.7406 21.4262 12.241 22.6277 12.5365C23.3873 12.726 24.1065 12.8682 24.7867 12.9588C25.4669 13.0508 26.076 13.0717 26.6168 13.0243C27.0893 12.9797 27.5032 12.8793 27.8559 12.7107C27.8642 12.7079 27.8712 12.7051 27.8768 12.7023C27.9214 12.6814 27.966 12.6605 28.0064 12.6368C28.012 12.634 28.0176 12.6285 28.0231 12.6257C28.7646 12.2396 29.2748 11.4688 29.2748 10.5754C29.2748 10.3217 29.233 10.075 29.1563 9.8478V9.84501C28.9291 9.15925 28.3897 8.61846 27.7109 8.38429H27.7081C27.4712 8.30206 27.2175 8.25746 26.9541 8.25746C25.6732 8.25746 24.6362 9.29585 24.6362 10.5754V10.5809C24.3114 10.8862 23.3943 10.8388 21.8806 10.4471C21.1349 10.2548 20.293 9.99833 19.3522 9.68194C18.4114 9.36554 17.4148 9.02824 16.3653 8.66724C15.3129 8.30903 14.2355 7.95081 13.1274 7.59679C12.018 7.24136 10.9238 6.93751 9.83943 6.67966C8.75783 6.4218 7.71386 6.23085 6.70474 6.10262C5.6998 5.97578 4.7771 5.96602 3.9422 6.07613C3.10591 6.18206 2.37555 6.4218 1.74834 6.79534C1.11833 7.1647 0.633283 7.73896 0.293193 8.5167C0.0896959 8.98084 -0.0078677 9.50074 0.000495186 10.0806C0.000495186 10.2074 0.00606959 10.3342 0.0214015 10.4555C0.169146 11.8214 1.12112 12.9449 2.39367 13.3505C2.71843 13.4536 3.06828 13.5107 3.43207 13.5107C5.32486 13.5107 6.86224 11.9734 6.86224 10.0806C6.86224 9.48541 6.71171 8.92788 6.44549 8.43865C7.14379 8.30624 8.06232 8.32575 9.20385 8.4944C10.107 8.62821 11.6165 9.03242 13.731 9.70424C12.096 11.0102 9.15367 14.7303 7.1633 17.3869L5.97299 19.0484C3.00834 23.4054 1.58108 26.7729 1.6898 29.1493C1.8459 32.5572 3.92966 34.1699 7.94105 33.9859C10.0541 33.8897 12.004 33.2583 13.7895 32.0931C14.6091 31.5634 15.352 30.9724 16.014 30.3187C16.4433 29.895 16.835 29.4685 17.196 29.0392C17.3535 29.8574 17.7103 30.5501 18.2734 31.1132C19.0665 31.9063 20.123 32.3022 21.4443 32.3022C23.5267 32.3022 25.2913 31.4575 26.7394 29.7654V30.1543C26.7394 30.3717 26.8244 30.6212 26.9931 30.9069C27.5214 31.8366 28.557 32.3022 30.0999 32.3022C31.3153 32.3022 32.5628 31.8478 33.8409 30.939C34.4124 30.5264 34.9504 30.0623 35.4577 29.5438C35.9651 29.0253 36.425 28.497 36.8376 27.9576C37.0481 27.6816 37.2627 27.3792 37.4802 27.0516C38.4377 25.669 39.412 24.1177 40.4044 22.3935C41.2922 22.5942 42.3697 22.7266 43.638 22.7894C42.3376 23.5086 41.2658 24.4173 40.4197 25.5157C40.0071 26.0439 39.6824 26.5889 39.4454 27.1478C39.2071 27.7081 39.0886 28.2768 39.0886 28.8525C39.0886 29.4281 39.2099 29.9341 39.4538 30.3661C40.1618 31.6554 41.5571 32.3008 43.6394 32.3008C44.866 32.3008 46.1176 31.8464 47.3971 30.9376C47.9672 30.525 48.5066 30.0609 49.014 29.5424C49.3485 29.2009 49.6593 28.8552 49.952 28.5054C50.1374 31.0463 51.8155 32.3175 54.9906 32.3175C56.7664 32.3175 58.425 31.8631 59.9693 30.9543C60.6774 30.5418 61.3227 30.0748 61.904 29.5508C62.2176 29.2692 62.5089 28.9835 62.7835 28.6977C62.8727 29.042 62.9953 29.3668 63.157 29.6706C64.1605 31.5314 66.3433 32.461 69.7051 32.461C71.3749 32.461 72.9653 32.0917 74.4776 31.3516C75.1745 31.0129 75.8282 30.6087 76.4359 30.1389C76.9669 29.7278 77.4506 29.2859 77.8924 28.8148C77.9788 29.1159 78.0917 29.4016 78.2353 29.672C79.2388 31.5328 81.4215 32.4624 84.7834 32.4624C86.4532 32.4624 88.0436 32.0931 89.5558 31.353C90.2527 31.0143 90.9064 30.6101 91.5141 30.1403C92.0131 29.7543 92.4703 29.3403 92.8898 28.9012C93.1268 29.7668 93.5631 30.4902 94.2014 31.0672C95.1311 31.9021 96.3103 32.3203 97.7375 32.3203H97.7696C105.516 32.3203 110.395 29.8839 112.403 25.0111C112.509 24.7686 112.562 24.5623 112.562 24.3922C112.562 23.9699 112.324 23.7734 111.848 23.8055L111.844 23.8013ZM29.8713 21.7412C29.2636 22.6291 28.5528 23.5588 27.7388 24.5316C26.2056 26.3603 24.8745 27.2747 23.7441 27.2747C22.7183 27.2747 22.2067 26.6614 22.2067 25.4348C22.2067 23.9448 23.0319 22.6388 24.6808 21.5196C26.4244 20.3363 28.6183 19.7327 31.261 19.7118C30.9432 20.1774 30.4818 20.8534 29.8741 21.7412H29.8713ZM69.7037 21.4234C70.4536 20.4505 71.3373 19.9641 72.352 19.9641C73.1339 19.9641 73.5256 20.3892 73.5256 21.2408C73.5256 22.0925 73.0127 22.834 71.9882 23.4682C71.0153 24.0605 69.8529 24.4355 68.5009 24.5943C68.5845 23.411 68.9873 22.3531 69.7051 21.4234H69.7037ZM84.782 21.4234C85.5319 20.4505 86.4156 19.9641 87.4303 19.9641C88.2122 19.9641 88.6039 20.3892 88.6039 21.2408C88.6039 22.0925 88.0909 22.834 87.0665 23.4682C86.0936 24.0605 84.9312 24.4355 83.5792 24.5943C83.6628 23.411 84.0656 22.3531 84.7834 21.4234H84.782ZM104.472 24.278C104.177 24.6905 103.833 25.0738 103.441 25.4279C103.049 25.7819 102.638 26.0913 102.205 26.3547C101.771 26.6196 101.327 26.8272 100.872 26.9806C100.418 27.1339 99.9704 27.2105 99.5328 27.2105C99.0951 27.2105 98.7369 27.0544 98.4623 26.7436C98.1877 26.4314 98.0497 26.0481 98.0497 25.5937C98.0497 25.1393 98.118 24.579 98.256 23.9128C98.7313 22.834 99.4812 21.9099 100.507 21.1391C100.982 20.7697 101.49 20.4756 102.029 20.2596C102.568 20.0435 103.1 19.9348 103.622 19.9348C104.145 19.9348 104.619 20.1565 105.041 20.6011C105.295 20.8659 105.422 21.2506 105.422 21.7579C105.422 22.551 105.105 23.3901 104.471 24.278H104.472Z" fill="#004068"/>
</svg>
