<svg width="466" height="115" viewBox="0 0 466 115" fill="none" xmlns="http://www.w3.org/2000/svg">
<path d="M463.028 73.1124C460.184 77.4115 456.837 80.8921 452.988 83.5655C449.139 86.2331 445.152 87.8532 441.043 88.4142C445.942 81.4245 448.395 74.6294 448.395 68.0347C448.395 64.9949 448.043 62.4589 447.345 60.4152C445.071 53.7289 439.514 50.3857 430.674 50.3857C425.117 50.3857 419.405 52.1031 413.542 55.5264C417.876 46.2812 424.546 34.6488 433.559 20.6236C432.463 18.889 430.738 18.0189 428.372 18.0189C426.225 18.0189 424.523 18.7344 423.254 20.1656C418.66 25.375 413.121 32.628 406.647 41.9133C393.923 60.0145 386.508 73.4558 384.35 82.2717C382.971 83.3365 381.54 84.2925 380.028 85.1168C375.06 87.8303 369.78 89.187 364.177 89.187C355.204 89.187 349.451 86.9315 346.912 82.4148C352.908 81.7222 358.222 80.5887 362.862 79.0316C365.487 78.1672 367.957 77.131 370.276 75.9403C372.596 74.7496 374.627 73.3585 376.381 71.7728C378.13 70.1871 379.52 68.4182 380.548 66.4661C381.575 64.514 382.088 62.5276 382.088 60.5068C382.088 58.486 381.713 56.8717 380.975 55.6581C378.874 52.1432 375.002 50.3857 369.359 50.3857C361.523 50.3857 353.848 52.189 346.324 55.7897C342.781 57.4384 339.498 59.4134 336.48 61.7147C333.462 64.016 330.86 66.5234 328.667 69.2368C326.48 71.9503 324.76 74.8068 323.514 77.8008C322.948 79.1575 322.533 80.5772 322.221 82.0485C320.756 83.2048 319.221 84.241 317.605 85.1226C312.637 87.836 307.357 89.1927 301.754 89.1927C292.781 89.1927 287.028 86.9372 284.495 82.4205C290.49 81.7279 295.805 80.5944 300.444 79.0373C303.07 78.1729 305.539 77.1367 307.859 75.946C310.179 74.7553 312.216 73.3643 313.964 71.7785C315.712 70.1928 317.103 68.4239 318.13 66.4718C319.157 64.5197 319.671 62.5333 319.671 60.5125C319.671 58.4917 319.302 56.8774 318.557 55.6638C316.457 52.1489 312.585 50.3914 306.942 50.3914C299.106 50.3914 291.431 52.1947 283.907 55.7955C280.364 57.4441 277.08 59.4191 274.062 61.7204C271.045 64.0217 268.436 66.5291 266.249 69.2425C264.062 71.956 262.343 74.8126 261.097 77.8065C260.548 79.1289 260.139 80.5142 259.833 81.9511C255.067 85.5633 249.637 87.3781 243.543 87.3781C234.703 87.3781 230.283 84.1208 230.283 77.6119C230.283 72.8834 232.447 66.9355 236.781 59.7683C245.401 61.812 251.593 62.831 255.355 62.831C256.884 62.831 258.246 60.5068 259.423 55.8642C257.19 55.7325 251.068 54.7994 241.045 53.0648C246.209 45.64 251.743 39.0625 257.652 33.3379C256.953 32.4677 255.99 31.7121 254.767 31.0595C254.195 30.7561 253.641 30.5042 253.093 30.3096C252.545 30.1149 251.922 30.0176 251.224 30.0176C250.525 30.0176 249.319 30.5386 247.611 31.5804C242.008 35.0553 235.338 41.4554 227.594 50.7864L217.681 49.1607C217.242 49.9392 216.936 50.9811 216.763 52.2863C216.717 52.853 216.763 53.3511 216.896 53.7861C217.029 54.2212 217.375 54.5361 217.946 54.7307C218.512 54.9253 219.256 55.1543 220.179 55.4119C221.097 55.6695 222.107 55.9787 223.197 56.3221C216.96 64.5827 212.493 71.8186 209.799 78.0355C208.114 79.8903 206.308 81.5619 204.357 83.0216C200.376 85.9297 196.746 87.3838 193.463 87.3838C188.604 87.3838 186.175 85.363 186.175 81.3272C186.175 80.3711 186.371 79.3751 186.764 78.3332C188.033 75.0759 190.22 72.059 193.33 69.2826C193.942 69.2826 194.553 69.0021 195.165 68.4354C197.398 66.5691 198.668 64.1362 198.974 61.1422C188.737 60.5812 180.243 58.6692 173.509 55.4119C174.998 52.2004 175.742 49.9106 175.742 48.5424C175.742 47.1742 175.304 46.0808 174.432 45.2508C172.199 43.0811 168.939 41.9935 164.652 41.9935C163.25 41.9935 161.086 43.7738 158.154 47.3345C155.044 50.9811 153.492 53.9751 153.492 56.3221C153.492 60.1404 155.789 63.0943 160.382 65.1781C157.566 72.7803 152.886 79.1461 146.366 84.2868C143.117 86.3419 140.128 87.3838 137.41 87.3838C134.917 87.3838 133.671 85.4202 133.671 81.4932C133.671 77.5661 135.091 71.6526 137.935 63.7469C138.726 61.5315 139.464 59.4936 140.168 57.6273C140.867 55.7611 141.501 54.1468 142.073 52.7786C142.644 51.4104 143.013 50.4487 143.186 49.882C141.305 49.4068 139.534 49.1664 137.872 49.1664C137.347 49.1664 136.614 49.2866 135.673 49.527C134.733 49.7675 133.671 50.5804 132.488 51.9657C130.999 50.8838 128.53 50.3399 125.073 50.3399C115.974 50.3399 107.157 52.3149 98.6223 56.2649C90.3938 60.0832 83.7464 65.035 78.6685 71.1088C76.8336 73.2955 75.3391 75.511 74.1504 77.7436C67.7742 85.1283 59.9382 89.0325 50.6307 89.4561C40.1114 89.9312 34.6758 86.2961 34.318 78.5507C34.0584 72.9235 36.3088 65.7276 41.0693 56.969L45.7778 48.7599C50.8672 40.6768 60.6825 26.7432 67.5203 18.7173L73.3656 20.6751C81.9345 23.5774 88.7031 25.6326 93.6771 26.8462C96.8219 27.6247 99.7994 28.2086 102.615 28.5807C105.431 28.9586 107.953 29.0444 110.192 28.8498C112.148 28.6666 113.862 28.2544 115.322 27.5618C115.356 27.5503 115.385 27.5389 115.408 27.5274C115.593 27.4415 115.777 27.3557 115.945 27.2584C115.968 27.2469 115.991 27.224 116.014 27.2126C119.084 25.6269 121.196 22.4612 121.196 18.7917C121.196 17.7498 121.023 16.7366 120.705 15.8035V15.792C119.765 12.9755 117.532 10.7544 114.721 9.79264H114.71C113.729 9.45489 112.679 9.2717 111.588 9.2717C106.285 9.2717 101.992 13.5365 101.992 18.7917V18.8146C100.648 20.0683 96.8508 19.8736 90.5842 18.265C87.4971 17.475 84.0118 16.4217 80.1169 15.1222C76.2219 13.8227 72.0962 12.4374 67.7511 10.9547C63.3946 9.48351 58.9341 8.01227 54.3467 6.55823C49.7536 5.09845 45.2239 3.8505 40.7346 2.79145C36.2568 1.7324 31.9349 0.948123 27.7572 0.421461C23.5968 -0.0994773 19.7769 -0.139551 16.3205 0.312692C12.8583 0.747761 9.83463 1.73239 7.23799 3.26658C4.62982 4.7836 2.62175 7.14214 1.2138 10.3365C0.371335 12.2428 -0.0325718 14.378 0.00205004 16.7595C0.00205004 17.2804 0.0251277 17.8013 0.088601 18.2994C0.700253 23.9095 4.64136 28.5235 9.90965 30.1894C11.2541 30.613 12.7025 30.8477 14.2085 30.8477C22.0446 30.8477 28.4092 24.5335 28.4092 16.7595C28.4092 14.3151 27.786 12.0252 26.6839 10.0159C29.5748 9.47205 33.3775 9.55219 38.1033 10.2449C41.8425 10.7944 48.0917 12.4546 56.8453 15.2138C50.0767 20.5778 37.8956 35.8567 29.6556 46.7678L24.7278 53.5915C12.4543 71.4866 6.54557 85.3172 6.99565 95.0776C7.64192 109.074 16.2685 115.698 32.8755 114.942C41.6232 114.547 49.6959 111.954 57.0876 107.168C60.4806 104.993 63.5561 102.565 66.297 99.8805C68.0743 98.1403 69.6957 96.3885 71.1902 94.6254C71.8423 97.9857 73.3195 100.831 75.6507 103.144C78.934 106.401 83.3079 108.027 88.7781 108.027C97.3989 108.027 104.704 104.558 110.699 97.6079V99.205C110.699 100.098 111.051 101.123 111.75 102.296C113.937 106.115 118.224 108.027 124.612 108.027C129.643 108.027 134.808 106.16 140.099 102.428C142.465 100.734 144.692 98.8272 146.793 96.6977C148.893 94.5681 150.797 92.3985 152.505 90.1831C153.377 89.0496 154.265 87.8074 155.165 86.4621C159.13 80.7833 163.163 74.4118 167.271 67.3305C170.947 68.1549 175.408 68.6987 180.659 68.9563C175.275 71.9102 170.838 75.6426 167.335 80.1536C165.627 82.3232 164.282 84.5615 163.302 86.8571C162.315 89.1584 161.824 91.494 161.824 93.8583C161.824 96.2226 162.326 98.3006 163.336 100.075C166.267 105.37 172.044 108.021 180.664 108.021C185.742 108.021 190.924 106.155 196.221 102.422C198.581 100.728 200.814 98.8215 202.915 96.6919C204.3 95.2894 205.586 93.8698 206.798 92.4329C207.565 102.869 214.513 108.09 227.658 108.09C235.009 108.09 241.876 106.223 248.269 102.491C251.201 100.796 253.872 98.8788 256.278 96.7263C257.577 95.57 258.783 94.3964 259.919 93.2228C260.289 94.6368 260.797 95.9707 261.466 97.2186C265.62 104.861 274.657 108.679 288.575 108.679C295.488 108.679 302.072 107.162 308.332 104.122C311.217 102.731 313.924 101.071 316.44 99.1421C318.638 97.4533 320.64 95.6386 322.47 93.7037C322.827 94.9402 323.295 96.1138 323.889 97.2244C328.044 104.867 337.08 108.685 350.998 108.685C357.911 108.685 364.495 107.168 370.755 104.128C373.641 102.737 376.347 101.077 378.863 99.1478C380.928 97.5621 382.821 95.8619 384.558 94.0586C385.539 97.6136 387.345 100.585 389.988 102.955C393.837 106.384 398.718 108.101 404.627 108.101H404.76C436.831 108.101 457.027 98.0945 465.342 78.0813C465.781 77.0852 466 76.238 466 75.5396C466 73.805 465.013 72.9979 463.046 73.1295L463.028 73.1124ZM123.665 64.6514C121.149 68.298 118.207 72.1163 114.837 76.1121C108.489 83.6227 102.979 87.3781 98.2991 87.3781C94.0522 87.3781 91.9345 84.8592 91.9345 79.8216C91.9345 73.702 95.3505 68.3381 102.177 63.7412C109.395 58.881 118.478 56.4023 129.418 56.3164C128.103 58.2284 126.193 61.0048 123.677 64.6514H123.665ZM288.569 63.3462C291.673 59.3504 295.332 57.3526 299.533 57.3526C302.77 57.3526 304.391 59.0986 304.391 62.5963C304.391 66.094 302.268 69.1395 298.027 71.7442C293.999 74.1771 289.186 75.717 283.589 76.3696C283.935 71.5095 285.603 67.1645 288.575 63.3462H288.569ZM350.992 63.3462C354.097 59.3504 357.755 57.3526 361.956 57.3526C365.193 57.3526 366.814 59.0986 366.814 62.5963C366.814 66.094 364.691 69.1395 360.45 71.7442C356.422 74.1771 351.61 75.717 346.012 76.3696C346.359 71.5095 348.026 67.1645 350.998 63.3462H350.992ZM432.509 75.0702C431.286 76.7647 429.861 78.3389 428.239 79.793C426.618 81.247 424.915 82.5179 423.121 83.5998C421.326 84.6875 419.486 85.5405 417.604 86.1702C415.723 86.7999 413.871 87.1147 412.059 87.1147C410.247 87.1147 408.764 86.4736 407.628 85.197C406.491 83.9147 405.92 82.3404 405.92 80.4742C405.92 78.608 406.202 76.3067 406.774 73.5703C408.741 69.1395 411.846 65.3441 416.093 62.1784C418.06 60.6614 420.161 59.4535 422.394 58.5662C424.627 57.6789 426.825 57.2323 428.989 57.2323C431.153 57.2323 433.115 58.1426 434.863 59.9687C435.914 61.0564 436.439 62.6364 436.439 64.7201C436.439 67.9774 435.129 71.4236 432.503 75.0702H432.509Z" fill="url(#paint0_linear_18_40)"/>
<defs>
<linearGradient id="paint0_linear_18_40" x1="0" y1="57.5" x2="466" y2="57.5" gradientUnits="userSpaceOnUse">
<stop stop-color="#30F8F8"/>
<stop offset="1" stop-color="#1DFCC8"/>
</linearGradient>
</defs>
</svg>
