<svg version="1.1" id="Layer_1" xmlns="http://www.w3.org/2000/svg" xmlns:xlink="http://www.w3.org/1999/xlink" x="0px" y="0px"
	 width="100%" viewBox="0 0 1080 1080" enable-background="new 0 0 1080 1080" xml:space="preserve">
<path fill="#003F68" opacity="1.000000" stroke="none" 
	d="
M503.000000,1081.000000 
	C335.352631,1081.000000 168.205246,1081.000000 1.028935,1081.000000 
	C1.028935,721.060852 1.028935,361.121674 1.028935,1.091248 
	C360.897614,1.091248 720.795227,1.091248 1080.846436,1.091248 
	C1080.846436,360.999939 1080.846436,720.999939 1080.846436,1081.000000 
	C888.454529,1081.000000 695.977234,1081.000000 503.000000,1081.000000 
M670.071899,406.590973 
	C647.605286,399.306915 625.074036,392.215179 602.686218,384.696472 
	C563.090210,371.398499 523.654663,357.579285 482.309113,350.456299 
	C461.543976,346.878906 440.746185,344.682861 419.781677,348.965515 
	C391.579132,354.726746 374.304199,374.005157 373.918701,400.786133 
	C373.636749,420.371521 382.144165,435.404358 399.629944,444.261414 
	C416.477386,452.795227 433.409912,451.473572 448.658936,440.203857 
	C464.255615,428.677216 470.135468,412.685638 466.928070,393.575623 
	C466.172760,389.075623 464.400635,384.746277 462.930389,379.777893 
	C497.382599,375.946045 528.629639,387.748169 561.015320,397.229523 
	C557.225098,400.782013 553.915710,403.564758 550.971436,406.691315 
	C505.384521,455.100952 464.566406,507.204468 430.683716,564.484680 
	C421.907867,579.320618 414.554535,595.118103 407.822296,611.013733 
	C398.496521,633.032898 393.529846,655.943115 398.976288,680.038391 
	C403.457916,699.865479 414.203918,714.509949 433.370422,722.425781 
	C454.860992,731.301453 477.176727,730.373535 499.461182,727.504639 
	C530.662476,723.487671 557.268677,708.746521 581.267944,689.379272 
	C607.335815,668.342407 626.789856,641.804016 640.997253,611.561279 
	C643.887695,605.408447 645.174683,598.349731 646.260315,591.558228 
	C646.922607,587.415466 644.043518,584.549438 639.722107,583.386353 
	C635.481812,582.245178 633.544189,584.407715 631.460083,587.678589 
	C618.321594,608.299133 601.838196,625.376892 579.033081,635.349915 
	C567.905701,640.216003 556.203674,642.687195 544.096497,644.239014 
	C534.690247,645.444641 525.773254,644.052979 516.747864,642.620117 
	C512.975769,642.021301 509.142853,640.651428 505.781372,638.818359 
	C490.239471,630.342651 486.269531,616.288147 487.540314,599.824158 
	C488.633881,585.656555 492.638000,572.266113 498.509979,559.436523 
	C523.247742,505.387726 558.293762,458.035034 594.918091,411.740326 
	C595.852661,410.558960 598.760071,409.956940 600.341492,410.432953 
	C608.621277,412.925110 616.740112,415.944885 624.969482,418.612640 
	C655.485657,428.505005 685.829712,439.167389 718.017334,442.435974 
	C732.214050,443.877625 746.388184,443.968628 759.192810,436.038330 
	C771.546265,428.387360 777.055298,413.261810 772.608826,399.449341 
	C768.102600,385.451477 754.900452,376.614990 739.888184,377.548676 
	C725.895691,378.418976 713.705688,389.030090 711.107849,402.601349 
	C709.420837,411.414368 708.861145,412.484039 699.953674,411.667877 
	C690.189514,410.773285 680.551270,408.505005 670.071899,406.590973 
z"/>
<path fill="#2DF7F7" opacity="1.000000" stroke="none" 
	d="
M670.465027,406.713135 
	C680.551270,408.505005 690.189514,410.773285 699.953674,411.667877 
	C708.861145,412.484039 709.420837,411.414368 711.107849,402.601349 
	C713.705688,389.030090 725.895691,378.418976 739.888184,377.548676 
	C754.900452,376.614990 768.102600,385.451477 772.608826,399.449341 
	C777.055298,413.261810 771.546265,428.387360 759.192810,436.038330 
	C746.388184,443.968628 732.214050,443.877625 718.017334,442.435974 
	C685.829712,439.167389 655.485657,428.505005 624.969482,418.612640 
	C616.740112,415.944885 608.621277,412.925110 600.341492,410.432953 
	C598.760071,409.956940 595.852661,410.558960 594.918091,411.740326 
	C558.293762,458.035034 523.247742,505.387726 498.509979,559.436523 
	C492.638000,572.266113 488.633881,585.656555 487.540314,599.824158 
	C486.269531,616.288147 490.239471,630.342651 505.781372,638.818359 
	C509.142853,640.651428 512.975769,642.021301 516.747864,642.620117 
	C525.773254,644.052979 534.690247,645.444641 544.096497,644.239014 
	C556.203674,642.687195 567.905701,640.216003 579.033081,635.349915 
	C601.838196,625.376892 618.321594,608.299133 631.460083,587.678589 
	C633.544189,584.407715 635.481812,582.245178 639.722107,583.386353 
	C644.043518,584.549438 646.922607,587.415466 646.260315,591.558228 
	C645.174683,598.349731 643.887695,605.408447 640.997253,611.561279 
	C626.789856,641.804016 607.335815,668.342407 581.267944,689.379272 
	C557.268677,708.746521 530.662476,723.487671 499.461182,727.504639 
	C477.176727,730.373535 454.860992,731.301453 433.370422,722.425781 
	C414.203918,714.509949 403.457916,699.865479 398.976288,680.038391 
	C393.529846,655.943115 398.496521,633.032898 407.822296,611.013733 
	C414.554535,595.118103 421.907867,579.320618 430.683716,564.484680 
	C464.566406,507.204468 505.384521,455.100952 550.971436,406.691315 
	C553.915710,403.564758 557.225098,400.782013 561.015320,397.229523 
	C528.629639,387.748169 497.382599,375.946045 462.930389,379.777893 
	C464.400635,384.746277 466.172760,389.075623 466.928070,393.575623 
	C470.135468,412.685638 464.255615,428.677216 448.658936,440.203857 
	C433.409912,451.473572 416.477386,452.795227 399.629944,444.261414 
	C382.144165,435.404358 373.636749,420.371521 373.918701,400.786133 
	C374.304199,374.005157 391.579132,354.726746 419.781677,348.965515 
	C440.746185,344.682861 461.543976,346.878906 482.309113,350.456299 
	C523.654663,357.579285 563.090210,371.398499 602.686218,384.696472 
	C625.074036,392.215179 647.605286,399.306915 670.465027,406.713135 
z"/>
</svg>